<?xml version="1.0" encoding="UTF-8"?><svg id="Calque_1" xmlns="http://www.w3.org/2000/svg" viewBox="0 0 960 640"><path d="M487.17,260.07h-47.92c-3.21,0-5.81,1.9-5.81,4.25v174.54c0,2.35,2.6,4.25,5.81,4.25h47.92c3.21,0,5.81-1.9,5.81-4.25v-174.54c0-2.35-2.6-4.25-5.81-4.25Z" style="fill:#042352;"/><path d="M577.17,198.58c-.26-2.65-1.7-4.1-1.7-4.1-1.14-1.14-2.67-1.58-4.11-1.7h-38.15c-8.62,0-15.59,6.98-15.59,15.59v228.23c0,.68.05,1.36.21,2.01.22.95.67,1.96,1.49,2.79.68.69,1.88,1.48,4.11,1.7,3.44.35,20.31.41,44.08.12,5.35-.06,9.65-4.39,9.67-9.75.02-8.99.05-21.96.07-37.26.01-1.27.01-2.56.01-3.85s.01-2.62.01-3.95c.06-31.47.12-70.85.14-105.58.01-1.27.01-2.54,0-3.8.01-1.25.01-2.49.01-3.73,0-41.36-.05-74.48-.26-76.73Z" style="fill:#042352;"/><path d="M494.21,223.08c-2.42,14.77-15.06,24.58-28.31,25.71-14.31,1.22-27.83-6.94-32.49-20.7-4.27-12.62.3-25.66,9.8-33.55,9.99-8.29,23.88-9.4,35.35-3.11,10.57,5.8,17.86,18.17,15.64,31.65Z" style="fill:#042352;"/><path d="M418.01,436.29l-41.71-238.71c-.48-2.78-2.9-4.8-5.73-4.8h-44.26c-2.48,0-4.69,1.58-5.49,3.94l-53.62,157.38-53.62-157.38c-.8-2.36-3.01-3.94-5.49-3.94h-44.63c-2.83,0-5.23,2.02-5.73,4.8l-41.71,238.71c-.62,3.56,2.12,6.81,5.73,6.81h47.26c2.88,0,5.32-2.11,5.74-4.96l15.44-104.22c2-12.88,3.79-25.76,5.38-38.67,4.17,13.44,12.68,31.28,16.91,43.95l30.02,80.48c.8,2.35,3.01,3.93,5.49,3.93h38.38c2.48,0,4.69-1.58,5.49-3.94l28.11-77.16c4.31-12.95,14.39-34.12,18.57-48.08,1.72,13.17,3.47,26.34,5.28,39.49l15.44,104.22c.42,2.85,2.86,4.96,5.75,4.96h47.25c3.6,0,6.35-3.26,5.73-6.81Z" style="fill:#042352;"/><path d="M671.69,350.35c.24-.38.46-.76.67-1.15-.21.39-.43.77-.67,1.15Z" style="fill:#fff;"/><path d="M640.82,341.16c-.01-.47,0-.94.02-1.4-.02.47-.03.93-.02,1.4Z" style="fill:#fff;"/><path d="M641.23,344.75c.1.48.23.97.37,1.45-.14-.48-.27-.97-.37-1.45Z" style="fill:#fff;"/><path d="M641.7,346.51c.15.49.32.97.51,1.46-.19-.48-.36-.97-.51-1.46Z" style="fill:#fff;"/><path d="M673.72,346.07c.1-.3.2-.61.29-.92-.09.31-.19.61-.29.92Z" style="fill:#fff;"/><path d="M674.15,344.6c.07-.29.15-.57.2-.86-.06.29-.13.58-.2.86Z" style="fill:#fff;"/><path d="M673.17,347.52c.14-.33.28-.65.4-.98-.12.33-.26.66-.4.98Z" style="fill:#fff;"/><path d="M673.01,347.89c-.16.36-.34.71-.52,1.06.18-.35.36-.7.52-1.06Z" style="fill:#fff;"/><path d="M643.89,330.48c-.28.42-.54.85-.79,1.3.24-.44.51-.87.79-1.3Z" style="fill:#fff;"/><path d="M643.04,331.89c-.24.45-.46.9-.67,1.36.2-.46.43-.91.67-1.36Z" style="fill:#fff;"/><path d="M641.82,334.68c.16-.47.33-.93.53-1.38-.2.45-.37.92-.53,1.38Z" style="fill:#fff;"/><path d="M641.74,334.92c-.15.45-.28.91-.39,1.37.11-.46.24-.92.39-1.37Z" style="fill:#fff;"/><path d="M674.45,343.12c.05-.27.09-.55.13-.83-.03.28-.08.55-.13.83Z" style="fill:#fff;"/><path d="M641.28,336.55c-.11.47-.2.95-.28,1.43.07-.48.17-.96.28-1.43Z" style="fill:#fff;"/><path d="M640.83,341.5c.02.48.05.95.11,1.43-.06-.48-.09-.95-.11-1.43Z" style="fill:#fff;"/><path d="M640.97,343.17c.06.45.13.9.22,1.36-.09-.45-.17-.9-.22-1.36Z" style="fill:#fff;"/><path d="M641,338.08c-.07.46-.11.92-.14,1.39.03-.46.08-.93.14-1.39Z" style="fill:#fff;"/><path d="M664.6,332.23s.04-.02.07-.03c.03-.02.06-.04.09-.06-.05.03-.09.05-.14.07,0,0-.01,0-.02.01Z" style="fill:#fff;"/><path d="M667.01,331.46c.14,0,.29.05.45.12-.15-.06-.3-.11-.44-.12,0,0,0,0,0,0Z" style="fill:#fff;"/><path d="M668.08,331.95c.16.12.32.26.48.42,0,0,.01.01.02.02,0,0-.01-.02-.02-.02-.16-.16-.32-.29-.48-.41Z" style="fill:#fff;"/><path d="M666.98,331.46c-.19,0-.38.01-.59.05.2-.04.4-.05.59-.05Z" style="fill:#fff;"/><path d="M666.67,331.67c.12,0,.23-.01.35,0-.02,0-.04-.01-.06-.02-.09,0-.19.02-.29.02Z" style="fill:#fff;"/><path d="M674.63,341.64c.02-.27.05-.54.06-.81-.01.27-.04.54-.06.81Z" style="fill:#fff;"/><path d="M666.99,282.38c-1.8,0-3.6.32-5.3.97-1.01.38-1.74,1.53-1.85,2.26.25.56.98,1.44,1.43,1.71,9.66,2.52,16.5,6.41,23.34,13.3.47-2.68-.42-5.64-2.81-9.49-3.36-5.4-9.04-8.75-14.81-8.75Z" style="fill:#fff;"/><path d="M666.51,331.68c-.09.01-.17.02-.26.03.09-.01.17-.03.26-.03Z" style="fill:#fff;"/><path d="M601.93,384.46c.9-1.96,2.2-4.53,4.01-7.41,1.43-2.29,5.79-8.91,13.42-15.42,8.74-7.45,17.68-11.24,23.68-13.21-.94-1.03-2.81-3.38-3.21-6.79,0,0-.25-2.09.34-4.37,1.11-4.31,7.88-16.44,19.43-14.94,11.8,1.53,15.7,15.61,14.74,21.06-.75,4.23-2.91,7.84-5.91,10.46h.01c1.71.93,3.42,1.85,5.12,2.77l1.37-4.33c1.05-1.54,8.82-13.4,4.26-26.21-.68-1.92-3.4-9.53-10.85-13.26-4.36-2.18-8.56-2.15-11.51-2.13-5.31.04-9.64,1.35-13.33,2.81-27.06,10.71-40.8,33.42-40.8,33.42-5.14,8.51-5.9,13.53-6.09,15.01-1.34,10.44,3.09,18.9,5.33,22.56Z" style="fill:#fff;"/><path d="M667.94,331.85c-.11-.08-.23-.15-.34-.2.11.06.23.12.34.2Z" style="fill:#fff;"/><path d="M650.08,324.61c-1.01.6-1.94,1.28-2.8,2.02.86-.74,1.79-1.41,2.8-2.01,8.54-5.08,18.65-1.34,22.78,7.41.42.9.77,1.81,1.04,2.72-.28-.92-.62-1.83-1.04-2.73-4.14-8.75-14.24-12.49-22.79-7.42Z" style="fill:#fff;"/><path d="M674.48,337.3c-.05-.3-.09-.6-.15-.9.06.3.1.6.15.9Z" style="fill:#fff;"/><path d="M674.22,335.95c-.08-.34-.16-.68-.26-1.03.1.34.18.68.26,1.03Z" style="fill:#fff;"/><path d="M674.64,338.71c-.02-.28-.04-.56-.07-.83.03.28.05.56.07.83Z" style="fill:#fff;"/><path d="M666.19,331.55c-.16.04-.31.08-.47.13.16-.06.32-.1.47-.13Z" style="fill:#fff;"/><path d="M665.49,331.78c-.14.06-.28.12-.42.19.14-.07.28-.13.42-.19Z" style="fill:#fff;"/><path d="M643.99,330.33c.29-.43.6-.85.92-1.25-.33.41-.63.82-.92,1.25Z" style="fill:#fff;"/><path d="M668.76,354.06h0c1.09-1.12,2.05-2.32,2.85-3.58-.81,1.26-1.76,2.47-2.86,3.58Z" style="fill:#fff;"/><path d="M674.69,339.36c.01.27,0,.54,0,.81,0-.27,0-.54,0-.81Z" style="fill:#fff;"/><path d="M735.02,352.01c-.03.1-.05.2-.08.3.03-.1.05-.2.08-.3Z" style="fill:#fff;"/><path d="M734.5,354.67c-.01.09-.02.18-.03.28,0-.09.02-.18.03-.28Z" style="fill:#fff;"/><path d="M734.6,353.93s0,0,0,0c0,0,0,0,0,0Z" style="fill:#fff;"/><path d="M734.41,358.2s0,.09,0,.14c0-.05,0-.09,0-.14Z" style="fill:#fff;"/><path d="M644.93,329.05c.69-.85,1.45-1.64,2.3-2.37-.84.73-1.61,1.53-2.3,2.37Z" style="fill:#fff;"/><path d="M748.81,339.15c-3.42.62-6.46,2.35-8.78,4.56,2.33-2.21,5.36-3.94,8.78-4.56Z" style="fill:#fff;"/><path d="M734.48,359.09s0,.03,0,.05c0-.02,0-.03,0-.05Z" style="fill:#fff;"/><path d="M738.1,345.87c-.16.21-.33.43-.48.64.15-.22.31-.43.48-.64Z" style="fill:#fff;"/><path d="M737.23,347.09c-.11.17-.22.34-.32.51.1-.17.21-.34.32-.51Z" style="fill:#fff;"/><path d="M735.35,350.93c-.04.13-.09.25-.13.38.04-.12.08-.25.13-.38Z" style="fill:#fff;"/><path d="M827.4,247.41c-1.44-.96-3.06-1.14-4.42-1.14h-.1c-1.12.01-2.25.05-3.37.12-10.38.56-20.83,3.34-30.69,8.17,11.95,10.43,22.49,22.41,31.45,35.73,1.77-3.41,3.5-6.99,5.03-10.69,3.4-8.23,5.79-17.13,5.54-26.39-.7-3.11-2-4.84-3.45-5.79Z" style="fill:#fff;"/><path d="M625.13,210.76c-2.58,0-5.43.69-6.96,5.7-3.47,11.32-4.15,23.06-2.08,36.45,12.99-9.57,26.7-17.03,41.57-22.64-11.24-11.88-25.12-19.51-32.53-19.51Z" style="fill:#fff;"/><path d="M740.25,310.4c8.48-4.66,16.23-4.75,21.91-4.82,2.11-.02,5.3-.06,5.93-.55,0,0,.07-.1.16-.37.02-.67-.6-2.3-1.3-2.86-2.9-2.32-6.41-3.55-10.11-3.55-6.8,0-13.45,4.07-16.92,10.39-.32.57-.45,1.22-.48,1.73.17.01.36.02.55.02h.26Z" style="fill:#fff;"/><path d="M786.87,419.35c3.4-2.41,10.76-8.36,13.79-18.48.65-2.16,2.2-8.18-.31-19.98-.71-3.33-7.43-32.85-32.73-48.71-5.81-3.64-9.96-4.9-14.19-4.83-11.38.2-18.51,10.01-19.18,10.98-7.4,10.53-3.87,22.46-3.4,23.95l.1,2.48,3.63-1.13h.03c-.74-2.01-1.14-4.14-1.15-6.34,0,0,0-1.66.28-3.24.8-4.43,9.64-17.44,21.05-14.81,11.28,2.6,12.61,17.63,12.91,21.01.23,2.61-.33,4.21-.73,5.09-1.49,3.22-4.61,4.61-5.81,5.07,3.43,1.58,14.94,7.39,21.7,21.04,6.18,12.47,4.7,24.01,4.02,27.91Z" style="fill:#fff;"/><path d="M735.75,349.91c-.05.11-.1.22-.14.33.04-.11.09-.22.14-.33Z" style="fill:#fff;"/><path d="M736.56,348.21c-.08.15-.16.3-.23.45.08-.15.15-.3.23-.45Z" style="fill:#fff;"/><path d="M734.41,355.67c0,.07,0,.13-.01.2,0-.07,0-.13.01-.2Z" style="fill:#fff;"/><path d="M767.98,357.77c0-.09,0-.17,0-.26,0,.09,0,.17,0,.26Z" style="fill:#fff;"/><path d="M767.99,356.5c0-.14,0-.28-.01-.41,0,.14.01.28.01.41Z" style="fill:#fff;"/><path d="M767.92,355.18c-.01-.14-.02-.29-.04-.43.02.14.03.29.04.43Z" style="fill:#fff;"/><path d="M754.77,339.24c-1.27-.27-2.52-.37-3.73-.33,1.21-.04,2.45.06,3.72.34,7.5,1.6,11.91,8.07,12.94,14.19.01.07.02.13.03.19-.01-.06-.01-.13-.03-.19-1.03-6.13-5.44-12.59-12.93-14.2Z" style="fill:#fff;"/><path d="M702.2,438.81c9,0,17.68-1.63,25.09-4.7.18-.08,17.88-8.06,20.73-23.64,2-10.87-2.67-20.63-4.77-24.33-3.14-5.52-7.69-10.32-13.19-13.87-2.18-1.41-4.37-2.82-6.55-4.23.76-.33,1.52-.67,2.28-1-3.56-3.24-9.18-7.39-16.93-9.81-6.16-1.93-11.29-2.05-14.15-2.05-4.65,0-9.62.62-14.73,1.86-1.84.51-3.69,1.01-5.53,1.52,2.34,1.06,4.69,2.12,7.04,3.18-3.65.62-7.3,1.24-10.95,1.86-5.95,1.41-14.26,4.7-20.09,12.38-9.76,12.82-9,31.84-1.79,40.27,11.91,13.92,32.42,22.57,53.55,22.57ZM688.11,366.27c8.41-2.76,18.18-.98,25.22,4.32,4.63,3.49,5.37,9.62,1.05,14.13-4.42,4.61-10.95,7.91-17.34,7.01-7.06-1.01-12.45-6.87-14.88-13.11-2.01-5.15.6-10.6,5.95-12.35ZM666.82,390.11c1.69-.83,4.01.06,5.07,1.75,10.47,16.78,33.11,20.62,48.53,7.68,1.28-1.07,5.01.15,5.3,1.34.29,1.19-.26,3.73-1.47,4.69-18.53,14.75-46.02,9.85-58.38-10.37-.98-1.59-.28-4.48.95-5.09Z" style="fill:#fff;"/><path d="M763.77,368.49c-.14.17-.28.33-.42.5.14-.16.28-.33.42-.5Z" style="fill:#fff;"/><path d="M764.56,367.45c-.13.18-.26.35-.39.52.13-.17.27-.35.39-.52Z" style="fill:#fff;"/><path d="M767.62,360.59c.02-.11.05-.23.07-.34-.02.12-.05.23-.07.34Z" style="fill:#fff;"/><path d="M767.85,359.22c0-.06.02-.12.03-.19,0,.06-.02.12-.03.19Z" style="fill:#fff;"/><path d="M766.95,362.95s.02-.07.04-.11c-.01.04-.02.07-.04.11Z" style="fill:#fff;"/><path d="M765.76,365.55c.08-.14.15-.28.23-.43-.07.14-.15.29-.23.43Z" style="fill:#fff;"/><path d="M766.34,364.41c.06-.12.12-.24.17-.36-.05.12-.11.24-.17.36Z" style="fill:#fff;"/><path d="M767.32,361.8c.03-.11.06-.22.09-.33-.03.11-.06.22-.09.33Z" style="fill:#fff;"/><path d="M765.14,366.6c.09-.14.17-.28.26-.42-.09.14-.17.28-.26.42Z" style="fill:#fff;"/><path d="M830.53,310.9c.04-.06.07-.11.11-.17,16.42-25.54,23.07-48.32,19.79-67.71-1.62-9.54-8.07-15.55-18.16-16.93-3.72-.51-7.68-1-11.79-1-1.64,0-3.21.07-4.77.23-.28.02-.56.05-.84.09-14.88,1.74-29.44,6.99-45.76,16.52-21.59-11.69-43.59-17.37-67.22-17.37-7.05,0-14.42.52-21.93,1.53l-7.07-7.86c-17.09-19.02-38.6-28.97-51.03-28.97-9.04,0-15.93,4.31-19.91,12.47-4.94,10.1-7.59,28.8-6.98,39.92.52,9.36,1.88,18.23,3.77,28.52-2.65,2.8-5.32,5.68-7.96,8.7-9.36,10.65-18.46,22.94-25.84,38.64-1.69,3.59-2.86,7.04-3.1,12.15l-.1,2.36,10.41.98c-6.69,9.8-11.89,18.86-9.72,24.91.6,1.72,2.12,3.98,5.85,5.01,1.14.31,3.11,1.2,4.51,1.94,5,9.81,10.97,18.96,17.84,27.34,19.73,24.16,46.68,42,78.32,51.43,15.1,4.51,30.75,6.79,46.53,6.79,39.74,0,77.37-14.36,105.95-40.43,1.11-1.02,2.65-1.58,4.33-1.58.46,0,.91.04,1.37.12.72.14,1.41.2,2.06.2,2.38,0,4.37-.9,5.73-2.63,4.02-5.07,1.74-16.37-.72-26.95l7.44,2.05.84-.41c.12-.06.25-.14.37-.21,2.36-1.46,3.96-5.28,3.84-7.97-.9-20.02-6.12-40.07-15.94-61.22l-.22-.48ZM649.87,375.31c6.12-8.04,14.75-11.47,20.93-12.93l6.02-1.43-9.3-5.39-3.44-2-1.17.56c-1.22.58-2.52.99-3.84,1.23-.68.12-1.59.28-2.68.28-.56,0-1.11-.04-1.64-.14-1.37-.22-2.27-.65-4.01-1.53-1.9-.96-3.72-2.14-5.42-3.49l-.94-.75-.67.15-.51.12c-.36.09-.72.17-1.07.27-10.47,2.67-20.12,8.69-28.7,17.88-5.44,5.85-8.6,11.65-10.35,19.23-10.94-12.7-11.89-29.09-2-41.96,12.52-16.32,30.18-29.01,48.49-34.84,2.85-.91,5.72-1.38,8.52-1.38,10.02,0,18.43,5.86,22.48,15.68,3.38,8.15,2.31,16.93-3.37,27.58l-2.58,4.84,5.33-1.28c5.16-1.23,10.17-1.86,14.89-1.86,10.93,0,20.57,3.21,29.5,9.79l4.14,3.05-.21-5.14c-.37-9.52-.31-17.32,4.16-24.01,4.96-7.46,12.6-11.73,20.99-11.73,5.64,0,11.15,1.99,15.91,5.75,14.58,11.51,26.25,28.41,32.85,47.59,4.85,14.11.53,28.41-11.28,37.31l-4.04,2.6c.93-17.46-7.85-34.95-24.22-47.79-.23-.19-.47-.37-.7-.56l-.8-.6-.37-.28-1.35.6c-1.96.88-4.01,1.41-6.1,1.56-.44.04-.88.05-1.27.05-.96,0-1.91-.09-2.81-.23-.68-.11-2.28-.38-3.8-1.12-2.57-1.23-4.15-3.43-5.02-5.06l-.96-1.79-3.53,1.1-.43.14-9.39,2.91,4.43,2.86c5.67,3.67,10.38,8.62,13.62,14.33,2.17,3.81,6.99,13.93,4.91,25.28-2.57,13.99-16.83,22.81-21.62,24.8-7.49,3.11-16.26,4.75-25.32,4.75-21.22,0-41.86-8.74-53.89-22.79-9.23-10.79-6.74-31.18,1.64-42.21ZM686.66,302.82c-.31.12-.93.28-1.68.28-.69,0-1.1-.12-1.22-.19-6.75-7.02-13.41-10.89-22.95-13.37-1.27-.33-3.11-2.85-3.15-3.77-.06-1.68,1.3-4.02,3.43-4.84,2-.74,4.06-1.12,6.17-1.12,6.58,0,13.02,3.78,16.81,9.86,3.28,5.31,4.07,9.26,2.58,13.14ZM660.39,231.52c-16.48,5.83-31.44,13.99-45.54,24.86-2.84-14.79-2.39-27.52,1.36-39.78,1.49-4.89,4.35-7.17,8.97-7.17,9.95,0,25.49,10.96,35.21,22.09ZM770.36,305.04c-.72,2.44-2.35,2.73-8.44,2.79-5.46.06-12.93.15-20.93,4.65-.09.04-.47.14-1.15.14-1.25,0-2.31-.35-2.65-.57-.6-1.25-.43-3.28.43-4.84,3.88-7.05,11.33-11.6,18.99-11.6,4.25,0,8.26,1.41,11.59,4.07,1.6,1.27,2.48,4.25,2.16,5.36ZM785.9,253.73c10.52-5.72,21.83-9.05,33.09-9.69,1.21-.09,2.41-.12,3.6-.14h.12c6.63,0,9.06,4.7,9.93,8.74.35,10.63-2.81,20.69-6.95,29.78-1.63,3.6-3.42,7.06-5.21,10.33l-.12.22c-9.52-14.89-21.09-28.07-34.46-39.25Z" style="fill:#d34a28;"/><path d="M833.35,311.09c16.31-25.68,22.88-48.7,19.52-68.48-1.79-10.54-9.17-17.46-20.26-18.96-3.8-.52-7.86-1.02-12.14-1.02-1.78,0-3.48.09-5.17.27-.23.01-.48.05-.72.07-14.84,1.73-29.37,6.86-45.52,16.14-21.57-11.44-43.57-17.01-67.16-17.01-6.77,0-13.8.46-20.96,1.38l-6.21-6.9c-12.89-14.35-34.94-29.79-52.87-29.79-10.05,0-17.7,4.79-22.13,13.85-5.1,10.46-7.85,29.71-7.21,41.16.49,9.1,1.78,17.73,3.57,27.59-1.77,1.86-3.53,3.78-5.3,5.75-10.12,11.27-20.09,24.31-28.09,41.32-1.81,3.86-3.07,7.57-3.32,13.09l-.22,4.7,4.69.44,3.94.37c-6.02,9.22-9.96,17.34-7.69,23.67.81,2.27,2.78,5.25,7.53,6.56.73.21,2.11.79,3.33,1.39,5.47,10.6,12.06,20.43,19.65,29.37,19.85,23.38,46.52,40.67,77.63,49.95,15.32,4.57,31.22,6.89,47.23,6.89,40.36,0,78.58-14.59,107.61-41.07.64-.6,1.62-.94,2.67-.94.31,0,.62.02.91.09.88.16,1.72.23,2.52.23,3.16,0,5.81-1.23,7.67-3.57,3.99-5.04,3.11-13.58.64-25.01l2.59.72,1.8.49,1.41-.69.28-.14c3.53-1.74,5.73-6.83,5.58-10.49-.91-20.13-6.09-40.25-15.81-61.42ZM830.84,375.66c2.95,12.59,7.57,30.59-1.65,30.59-.49,0-1.04-.05-1.6-.15-.6-.12-1.22-.17-1.83-.17-2.21,0-4.38.75-6,2.22-28.78,26.27-66.27,39.79-104.28,39.79-15.37,0-30.83-2.21-45.83-6.68-31.68-9.44-59.16-27.64-79.01-53.02-6.09-7.74-11.44-16.16-15.99-25.2-1.46-.83-4.11-2.07-5.7-2.52-10.75-2.99-.1-18.55,7.64-29.62l-12.28-1.15c.21-4.44,1.14-7.53,2.86-11.21,6.42-13.67,14.25-24.95,23.6-35.89,3.33-3.91,6.88-7.78,10.62-11.7-1.81-9.78-3.39-19.39-3.95-29.46-.62-11.16,2.17-29.39,6.73-38.71,3.86-7.9,10.23-11.07,17.69-11.07,15.96,0,36.95,14.52,49.21,28.16l7.95,8.84c7.81-1.12,15.42-1.69,22.89-1.69,23.42,0,45.36,5.64,67.24,17.74,14.32-8.51,29.46-14.97,46.01-16.9.33-.04.65-.07.99-.1,1.47-.15,2.9-.21,4.32-.21,3.86,0,7.58.44,11.47.98,8.48,1.16,14.55,6.02,16.06,14.9,3.64,21.52-6.18,44.74-17.99,63.69-.77,1.21-1.53,2.41-2.3,3.58,1.73,3.65,3.36,7.32,4.84,11.01,6.65,16.39,10.86,33.2,11.67,51,.06,1.54-.74,3.79-1.86,5.06-.3.35-.63.63-.96.79l-10.56-2.9ZM835.11,252.35c-1.37-6.68-5.56-10.91-12.39-10.91h-.15c-1.35.01-2.68.06-4.01.14-12.95.8-25.57,4.96-37,11.8,14.85,11.88,27.38,26.01,37.54,42.22.38.31,1.42,1.1,1.89,1.1.1,0,.17-.04.21-.1l1.44-2.65c1.32-2.42,2.59-4.85,3.79-7.3,5.38-11.04,9.11-22.33,8.68-34.29ZM790.3,254.24c9.36-4.58,19.27-7.22,29.12-7.75,1.06-.06,2.14-.1,3.2-.11h.1c1.3,0,2.83.17,4.2,1.09,1.37.9,2.6,2.54,3.27,5.49.23,8.79-2.04,17.23-5.26,25.05-1.46,3.52-3.1,6.91-4.78,10.15-8.51-12.64-18.51-24.01-29.85-33.91ZM770.87,329.91c-5.41-4.27-11.49-6.28-17.44-6.28-8.93,0-17.52,4.53-23.05,12.83-4.86,7.3-4.95,15.62-4.56,25.48-9.58-7.06-19.94-10.27-30.97-10.27-5.01,0-10.17.67-15.46,1.94,5.41-10.17,7.48-19.99,3.47-29.69-4.41-10.67-13.76-17.2-24.78-17.2-2.99,0-6.1.48-9.26,1.49-19.38,6.17-37.18,19.38-49.7,35.69-11.57,15.07-9.21,34.84,5.53,48.65,1.36-9.6,4.44-16.14,10.58-22.73,7.86-8.43,17.44-14.85,28.54-17.43,2.25,1.8,4.31,3,5.85,3.77,1.77.9,2.95,1.48,4.72,1.78.73.12,1.42.16,2.05.16,1.27,0,2.33-.19,3.12-.32,1.9-.35,3.41-.95,4.44-1.43.35.2.68.4,1.02.59,1.75,1.01,3.51,2.02,5.25,3.04-4.56,1.09-15.04,4.27-22.32,13.84-10.91,14.33-9.99,35.44-1.56,45.31,13.18,15.42,34.95,23.65,55.76,23.65,9.22,0,18.25-1.62,26.27-4.94,4.01-1.67,20.18-10.76,23.1-26.64,2.38-13.06-3.72-24.34-5.2-26.95-4.64-8.17-10.88-12.89-14.43-15.18,1.67-.51,3.32-1.02,4.98-1.54.47-.15.94-.28,1.41-.43.86,1.6,2.74,4.48,6.12,6.11,1.8.88,3.62,1.2,4.47,1.33.56.1,1.72.27,3.22.27.46,0,.94-.02,1.44-.06,2.88-.2,5.25-1,6.94-1.77,16.27,12.47,26.76,31.22,23.41,51.28l8.47-5.48c12.48-9.36,17.48-24.8,12.21-40.13-6.46-18.76-18.12-36.48-33.65-48.73ZM789.36,414.8c-.68-16.53-9.48-32.69-24.79-44.85-.37-.31-.74-.59-1.12-.89l-.57-.43-1.78-1.37-2.69,1.21c-1.69.77-3.47,1.22-5.26,1.36-.37.02-.73.04-1.1.04-.83,0-1.63-.07-2.4-.2-.59-.1-1.95-.33-3.15-.91-1.98-.95-3.22-2.7-3.93-4.01l-1.93-3.58-3.89,1.21-1.59.49-.73.22-3.6,1.12-.1-2.47c-.36-9.06-.31-16.47,3.74-22.54,4.49-6.75,11.39-10.63,18.94-10.63,5.07,0,10.05,1.8,14.39,5.22,14.21,11.22,25.59,27.71,32.04,46.45,4.48,13.04.51,26.23-10.37,34.48l-.12.07ZM746.62,410.3c-2.77,15.14-19.96,22.89-20.13,22.96-7.2,2.99-15.63,4.57-24.37,4.57-20.52,0-40.44-8.41-52.01-21.93-7-8.18-7.74-26.65,1.74-39.11,5.67-7.46,13.74-10.65,19.52-12.02l12.06-2.85-5.14-2.98,2.25-.54c4.96-1.2,9.79-1.8,14.31-1.8,10.37,0,19.54,3.05,28.04,9.31l.74.54-3.31,1.02,8.86,5.73c5.35,3.44,9.76,8.11,12.81,13.47,2.04,3.59,6.57,13.07,4.63,23.63ZM664.19,350.76l-2.35,1.11c-1.02.48-2.11.84-3.22,1.04-.62.11-1.37.25-2.23.25-.42,0-.83-.02-1.25-.1-.98-.16-1.6-.44-3.3-1.31-1.74-.88-3.42-1.96-4.99-3.21l-1.88-1.51-2.33.54h-.01c-.59.14-1.19.3-1.77.46-10.68,2.88-20.51,9.06-29.25,18.42-4.54,4.88-7.58,9.72-9.57,15.47-7.32-11.12-7.17-24.37.99-35.02,12.21-15.91,29.44-28.31,47.27-33.99,2.62-.83,5.23-1.26,7.77-1.26,9,0,16.55,5.3,20.21,14.15,3.07,7.42,2.04,15.52-3.26,25.48l-2.36,4.41-3.01-1.75-.65-.37-2.57-1.49-2.25-1.31ZM739.84,315.09c.94,0,1.79-.15,2.35-.46,15.12-8.49,27.95-.1,30.53-8.9.67-2.26-.73-6.18-2.98-7.99-3.96-3.16-8.56-4.6-13.14-4.6-8.37,0-16.73,4.84-21.16,12.89-1.25,2.26-1.49,5.31-.35,7.36.63,1.1,2.85,1.7,4.74,1.7ZM739.78,308.41c3.46-6.28,10.06-10.33,16.83-10.33,3.68,0,7.16,1.22,10.05,3.53.7.56,1.32,2.17,1.3,2.84-.09.27-.16.37-.16.37-.63.48-3.8.52-5.9.54-5.65.06-13.36.16-21.79,4.79h-.26c-.19,0-.37-.01-.54-.02.04-.51.16-1.15.48-1.72ZM655.19,285.88c.07,2.01,2.65,5.44,4.99,6.06,8.84,2.28,15.17,5.78,21.85,12.74.58.62,1.74.89,2.95.89,1.68,0,3.43-.54,3.8-1.43,2.41-5.69.35-10.99-2.6-15.75-4.17-6.7-11.35-11.04-18.93-11.04-2.32,0-4.69.41-7.02,1.28-3,1.15-5.15,4.38-5.04,7.25ZM667.25,282.29c5.74,0,11.38,3.33,14.73,8.7,2.37,3.83,3.26,6.77,2.79,9.43-6.8-6.85-13.6-10.72-23.21-13.22-.44-.27-1.17-1.15-1.42-1.7.11-.73.84-1.86,1.84-2.25,1.69-.64,3.48-.96,5.27-.96ZM664.58,232.71c-9.51-12.11-27.32-25.74-39.39-25.74-5.23,0-9.39,2.57-11.35,8.91-4.41,14.44-4.15,29.09-.59,44.92,15.41-12.44,32.16-21.79,51.33-28.1ZM625.18,211.91c7.05,0,20.25,7.26,30.94,18.55-14.14,5.33-27.17,12.43-39.53,21.53-1.98-12.74-1.32-23.9,1.98-34.67,1.46-4.77,4.16-5.42,6.62-5.42ZM804.52,378.64c-6.46-18.76-18.12-36.48-33.65-48.73-5.41-4.27-11.49-6.28-17.44-6.28-8.93,0-17.52,4.53-23.05,12.83-4.86,7.3-4.95,15.62-4.56,25.48-9.58-7.06-19.94-10.27-30.97-10.27-5.01,0-10.17.67-15.46,1.94,5.41-10.17,7.48-19.99,3.47-29.69-4.41-10.67-13.76-17.2-24.78-17.2-2.99,0-6.1.48-9.26,1.49-19.38,6.17-37.18,19.38-49.7,35.69-11.57,15.07-9.21,34.84,5.53,48.65,1.36-9.6,4.44-16.14,10.58-22.73,7.86-8.43,17.44-14.85,28.54-17.43,2.25,1.8,4.31,3,5.85,3.77,1.77.9,2.95,1.48,4.72,1.78.73.12,1.42.16,2.05.16,1.27,0,2.33-.19,3.12-.32,1.9-.35,3.41-.95,4.44-1.43.35.2.68.4,1.02.59,1.75,1.01,3.51,2.02,5.25,3.04-4.56,1.09-15.04,4.27-22.32,13.84-10.91,14.33-9.99,35.44-1.56,45.31,13.18,15.42,34.95,23.65,55.76,23.65,9.22,0,18.25-1.62,26.27-4.94,4.01-1.67,20.18-10.76,23.1-26.64,2.38-13.06-3.72-24.34-5.2-26.95-4.64-8.17-10.88-12.89-14.43-15.18,1.67-.51,3.32-1.02,4.98-1.54.47-.15.94-.28,1.41-.43.86,1.6,2.74,4.48,6.12,6.11,1.8.88,3.62,1.2,4.47,1.33.56.1,1.72.27,3.22.27.46,0,.94-.02,1.44-.06,2.88-.2,5.25-1,6.94-1.77,16.27,12.47,26.76,31.22,23.41,51.28l8.47-5.48c12.48-9.36,17.48-24.8,12.21-40.13ZM789.36,414.8c-.68-16.53-9.48-32.69-24.79-44.85-.37-.31-.74-.59-1.12-.89l-.57-.43-1.78-1.37-2.69,1.21c-1.69.77-3.47,1.22-5.26,1.36-.37.02-.73.04-1.1.04-.83,0-1.63-.07-2.4-.2-.59-.1-1.95-.33-3.15-.91-1.98-.95-3.22-2.7-3.93-4.01l-1.93-3.58-3.89,1.21-1.59.49-.73.22-3.6,1.12-.1-2.47c-.36-9.06-.31-16.47,3.74-22.54,4.49-6.75,11.39-10.63,18.94-10.63,5.07,0,10.05,1.8,14.39,5.22,14.21,11.22,25.59,27.71,32.04,46.45,4.48,13.04.51,26.23-10.37,34.48l-.12.07ZM746.62,410.3c-2.77,15.14-19.96,22.89-20.13,22.96-7.2,2.99-15.63,4.57-24.37,4.57-20.52,0-40.44-8.41-52.01-21.93-7-8.18-7.74-26.65,1.74-39.11,5.67-7.46,13.74-10.65,19.52-12.02l12.06-2.85-5.14-2.98,2.25-.54c4.96-1.2,9.79-1.8,14.31-1.8,10.37,0,19.54,3.05,28.04,9.31l.74.54-3.31,1.02,8.86,5.73c5.35,3.44,9.76,8.11,12.81,13.47,2.04,3.59,6.57,13.07,4.63,23.63ZM664.19,350.76l-2.35,1.11c-1.02.48-2.11.84-3.22,1.04-.62.11-1.37.25-2.23.25-.42,0-.83-.02-1.25-.1-.98-.16-1.6-.44-3.3-1.31-1.74-.88-3.42-1.96-4.99-3.21l-1.88-1.51-2.33.54h-.01c-.59.14-1.19.3-1.77.46-10.68,2.88-20.51,9.06-29.25,18.42-4.54,4.88-7.58,9.72-9.57,15.47-7.32-11.12-7.17-24.37.99-35.02,12.21-15.91,29.44-28.31,47.27-33.99,2.62-.83,5.23-1.26,7.77-1.26,9,0,16.55,5.3,20.21,14.15,3.07,7.42,2.04,15.52-3.26,25.48l-2.36,4.41-3.01-1.75-.65-.37-2.57-1.49-2.25-1.31ZM769.74,297.74c-3.96-3.16-8.56-4.6-13.14-4.6-8.37,0-16.73,4.84-21.16,12.89-1.25,2.26-1.49,5.31-.35,7.36.63,1.1,2.85,1.7,4.74,1.7.94,0,1.79-.15,2.35-.46,15.12-8.49,27.95-.1,30.53-8.9.67-2.26-.73-6.18-2.98-7.99ZM739.84,310.15c-.19,0-.37-.01-.54-.02.04-.51.16-1.15.48-1.72,3.46-6.28,10.06-10.33,16.83-10.33,3.68,0,7.16,1.22,10.05,3.53.7.56,1.32,2.17,1.3,2.84-.09.27-.16.37-.16.37-.63.48-3.8.52-5.9.54-5.65.06-13.36.16-21.79,4.79h-.26ZM686.18,288.38c-4.17-6.7-11.35-11.04-18.93-11.04-2.32,0-4.69.41-7.02,1.28-3,1.15-5.15,4.38-5.04,7.25.07,2.01,2.65,5.44,4.99,6.06,8.84,2.28,15.17,5.78,21.85,12.74.58.62,1.74.89,2.95.89,1.68,0,3.43-.54,3.8-1.43,2.41-5.69.35-10.99-2.6-15.75ZM684.77,300.42c-6.8-6.85-13.6-10.72-23.21-13.22-.44-.27-1.17-1.15-1.42-1.7.11-.73.84-1.86,1.84-2.25,1.69-.64,3.48-.96,5.27-.96,5.74,0,11.38,3.33,14.73,8.7,2.37,3.83,3.26,6.77,2.79,9.43ZM835.11,252.35c-1.37-6.68-5.56-10.91-12.39-10.91h-.15c-1.35.01-2.68.06-4.01.14-12.95.8-25.57,4.96-37,11.8,14.85,11.88,27.38,26.01,37.54,42.22.38.31,1.42,1.1,1.89,1.1.1,0,.17-.04.21-.1l1.44-2.65c1.32-2.42,2.59-4.85,3.79-7.3,5.38-11.04,9.11-22.33,8.68-34.29ZM790.3,254.24c9.36-4.58,19.27-7.22,29.12-7.75,1.06-.06,2.14-.1,3.2-.11h.1c1.3,0,2.83.17,4.2,1.09,1.37.9,2.6,2.54,3.27,5.49.23,8.79-2.04,17.23-5.26,25.05-1.46,3.52-3.1,6.91-4.78,10.15-8.51-12.64-18.51-24.01-29.85-33.91ZM625.18,206.97c-5.23,0-9.39,2.57-11.35,8.91-4.41,14.44-4.15,29.09-.59,44.92,15.41-12.44,32.16-21.79,51.33-28.1-9.51-12.11-27.32-25.74-39.39-25.74ZM625.18,211.91c7.05,0,20.25,7.26,30.94,18.55-14.14,5.33-27.17,12.43-39.53,21.53-1.98-12.74-1.32-23.9,1.98-34.67,1.46-4.77,4.16-5.42,6.62-5.42ZM835.11,252.35c-1.37-6.68-5.56-10.91-12.39-10.91h-.15c-1.35.01-2.68.06-4.01.14-12.95.8-25.57,4.96-37,11.8,14.85,11.88,27.38,26.01,37.54,42.22.38.31,1.42,1.1,1.89,1.1.1,0,.17-.04.21-.1l1.44-2.65c1.32-2.42,2.59-4.85,3.79-7.3,5.38-11.04,9.11-22.33,8.68-34.29ZM790.3,254.24c9.36-4.58,19.27-7.22,29.12-7.75,1.06-.06,2.14-.1,3.2-.11h.1c1.3,0,2.83.17,4.2,1.09,1.37.9,2.6,2.54,3.27,5.49.23,8.79-2.04,17.23-5.26,25.05-1.46,3.52-3.1,6.91-4.78,10.15-8.51-12.64-18.51-24.01-29.85-33.91ZM770.87,329.91c-5.41-4.27-11.49-6.28-17.44-6.28-8.93,0-17.52,4.53-23.05,12.83-4.86,7.3-4.95,15.62-4.56,25.48-9.58-7.06-19.94-10.27-30.97-10.27-5.01,0-10.17.67-15.46,1.94,5.41-10.17,7.48-19.99,3.47-29.69-4.41-10.67-13.76-17.2-24.78-17.2-2.99,0-6.1.48-9.26,1.49-19.38,6.17-37.18,19.38-49.7,35.69-11.57,15.07-9.21,34.84,5.53,48.65,1.36-9.6,4.44-16.14,10.58-22.73,7.86-8.43,17.44-14.85,28.54-17.43,2.25,1.8,4.31,3,5.85,3.77,1.77.9,2.95,1.48,4.72,1.78.73.12,1.42.16,2.05.16,1.27,0,2.33-.19,3.12-.32,1.9-.35,3.41-.95,4.44-1.43.35.2.68.4,1.02.59,1.75,1.01,3.51,2.02,5.25,3.04-4.56,1.09-15.04,4.27-22.32,13.84-10.91,14.33-9.99,35.44-1.56,45.31,13.18,15.42,34.95,23.65,55.76,23.65,9.22,0,18.25-1.62,26.27-4.94,4.01-1.67,20.18-10.76,23.1-26.64,2.38-13.06-3.72-24.34-5.2-26.95-4.64-8.17-10.88-12.89-14.43-15.18,1.67-.51,3.32-1.02,4.98-1.54.47-.15.94-.28,1.41-.43.86,1.6,2.74,4.48,6.12,6.11,1.8.88,3.62,1.2,4.47,1.33.56.1,1.72.27,3.22.27.46,0,.94-.02,1.44-.06,2.88-.2,5.25-1,6.94-1.77,16.27,12.47,26.76,31.22,23.41,51.28l8.47-5.48c12.48-9.36,17.48-24.8,12.21-40.13-6.46-18.76-18.12-36.48-33.65-48.73ZM789.36,414.8c-.68-16.53-9.48-32.69-24.79-44.85-.37-.31-.74-.59-1.12-.89l-.57-.43-1.78-1.37-2.69,1.21c-1.69.77-3.47,1.22-5.26,1.36-.37.02-.73.04-1.1.04-.83,0-1.63-.07-2.4-.2-.59-.1-1.95-.33-3.15-.91-1.98-.95-3.22-2.7-3.93-4.01l-1.93-3.58-3.89,1.21-1.59.49-.73.22-3.6,1.12-.1-2.47c-.36-9.06-.31-16.47,3.74-22.54,4.49-6.75,11.39-10.63,18.94-10.63,5.07,0,10.05,1.8,14.39,5.22,14.21,11.22,25.59,27.71,32.04,46.45,4.48,13.04.51,26.23-10.37,34.48l-.12.07ZM746.62,410.3c-2.77,15.14-19.96,22.89-20.13,22.96-7.2,2.99-15.63,4.57-24.37,4.57-20.52,0-40.44-8.41-52.01-21.93-7-8.18-7.74-26.65,1.74-39.11,5.67-7.46,13.74-10.65,19.52-12.02l12.06-2.85-5.14-2.98,2.25-.54c4.96-1.2,9.79-1.8,14.31-1.8,10.37,0,19.54,3.05,28.04,9.31l.74.54-3.31,1.02,8.86,5.73c5.35,3.44,9.76,8.11,12.81,13.47,2.04,3.59,6.57,13.07,4.63,23.63ZM664.19,350.76l-2.35,1.11c-1.02.48-2.11.84-3.22,1.04-.62.11-1.37.25-2.23.25-.42,0-.83-.02-1.25-.1-.98-.16-1.6-.44-3.3-1.31-1.74-.88-3.42-1.96-4.99-3.21l-1.88-1.51-2.33.54h-.01c-.59.14-1.19.3-1.77.46-10.68,2.88-20.51,9.06-29.25,18.42-4.54,4.88-7.58,9.72-9.57,15.47-7.32-11.12-7.17-24.37.99-35.02,12.21-15.91,29.44-28.31,47.27-33.99,2.62-.83,5.23-1.26,7.77-1.26,9,0,16.55,5.3,20.21,14.15,3.07,7.42,2.04,15.52-3.26,25.48l-2.36,4.41-3.01-1.75-.65-.37-2.57-1.49-2.25-1.31ZM739.84,315.09c.94,0,1.79-.15,2.35-.46,15.12-8.49,27.95-.1,30.53-8.9.67-2.26-.73-6.18-2.98-7.99-3.96-3.16-8.56-4.6-13.14-4.6-8.37,0-16.73,4.84-21.16,12.89-1.25,2.26-1.49,5.31-.35,7.36.63,1.1,2.85,1.7,4.74,1.7ZM739.78,308.41c3.46-6.28,10.06-10.33,16.83-10.33,3.68,0,7.16,1.22,10.05,3.53.7.56,1.32,2.17,1.3,2.84-.09.27-.16.37-.16.37-.63.48-3.8.52-5.9.54-5.65.06-13.36.16-21.79,4.79h-.26c-.19,0-.37-.01-.54-.02.04-.51.16-1.15.48-1.72ZM655.19,285.88c.07,2.01,2.65,5.44,4.99,6.06,8.84,2.28,15.17,5.78,21.85,12.74.58.62,1.74.89,2.95.89,1.68,0,3.43-.54,3.8-1.43,2.41-5.69.35-10.99-2.6-15.75-4.17-6.7-11.35-11.04-18.93-11.04-2.32,0-4.69.41-7.02,1.28-3,1.15-5.15,4.38-5.04,7.25ZM667.25,282.29c5.74,0,11.38,3.33,14.73,8.7,2.37,3.83,3.26,6.77,2.79,9.43-6.8-6.85-13.6-10.72-23.21-13.22-.44-.27-1.17-1.15-1.42-1.7.11-.73.84-1.86,1.84-2.25,1.69-.64,3.48-.96,5.27-.96ZM664.58,232.71c-9.51-12.11-27.32-25.74-39.39-25.74-5.23,0-9.39,2.57-11.35,8.91-4.41,14.44-4.15,29.09-.59,44.92,15.41-12.44,32.16-21.79,51.33-28.1ZM625.18,211.91c7.05,0,20.25,7.26,30.94,18.55-14.14,5.33-27.17,12.43-39.53,21.53-1.98-12.74-1.32-23.9,1.98-34.67,1.46-4.77,4.16-5.42,6.62-5.42Z" style="fill:#fff;"/><path d="M713.95,385.3c-4.29,4.47-10.63,7.68-16.84,6.81-6.86-.98-12.09-6.67-14.45-12.74-1.95-5,.59-10.3,5.77-11.99,8.17-2.68,17.66-.96,24.5,4.2,4.5,3.39,5.21,9.34,1.02,13.72Z" style="fill:#042352;"/><path d="M723.54,405.55c-18,14.33-44.7,9.57-56.7-10.07-.95-1.55-.27-4.35.92-4.95,1.64-.81,3.89.06,4.92,1.7,10.17,16.3,32.16,20.03,47.13,7.46,1.24-1.04,4.86.15,5.15,1.3.29,1.16-.25,3.63-1.42,4.56Z" style="fill:#042352;"/><path d="M669.01,353.57c5.85-5.96,7.67-14.33,4.09-21.91-4.11-8.7-14.16-12.42-22.65-7.37-8.11,4.8-11.35,14.47-7.8,23.3.3.78.67,1.53,1.07,2.28.41.75.88,1.49,1.39,2.22-.44.1-.9.2-1.33.31,2.65,2.98,6.28,5.12,10.53,5.88,3.77.67,7.44.12,10.68-1.33.89-.38,1.74-.85,2.54-1.38.59-.37,1.15-.79,1.69-1.23l-.51-.44c.1-.1.21-.2.3-.31ZM667.28,331.09c.47.02,1.02.4,1.53.9.81.84,1.49,2.07,1.41,2.83-.01.15-.06.31-.11.46-.39,1.53-2.54,3.42-3.91,3.27-1.43-.15-3.63-2.54-3.54-3.96.01-.1.04-.2.07-.3,0-.01,0-.04.01-.05,0-.01,0-.04.01-.05h0s.01-.04.01-.05c.17-.67.85-1.42,1.69-2.01.15-.1.28-.2.44-.28.79-.48,1.67-.79,2.38-.75Z" style="fill:#042352;"/><path d="M675.64,343.33c-.79,4.49-3.15,8.3-6.42,10.99l-.5-.44c6.08-5.99,8.02-14.52,4.38-22.23-4.11-8.71-14.16-12.42-22.66-7.38-9.53,5.65-12.31,17.99-5.32,27.81-.46.09-.91.2-1.34.3-3.62-4.07-5.43-9.68-4.41-15.46,1.77-10.02,11.33-16.7,21.34-14.94,10.01,1.76,16.7,11.32,14.94,21.33Z" style="fill:#042352;"/><path d="M666.25,338.36c-1.43-.15-3.63-2.55-3.54-3.96,0-.07.02-.15.04-.22-.05.14-.09.28-.1.41-.09,1.41,2.11,3.81,3.54,3.96,1.38.14,3.52-1.74,3.91-3.27-.51,1.49-2.53,3.22-3.85,3.08Z" style="fill:#042352;"/><path d="M667.27,331.09c-1.65-.08-4.19,1.7-4.53,3.09.5-1.35,2.89-2.98,4.47-2.9,1.24.06,3.1,2.51,2.95,3.73-.01.09-.03.18-.05.27.05-.15.09-.31.11-.45.15-1.23-1.71-3.67-2.95-3.73Z" style="fill:#fff;"/><path d="M667.28,331.29c-2.23-.11-5.59,2.19-6.3,4.1-.03.1-.05.21-.05.31-.13,1.99,2.98,5.37,5,5.58,1.86.19,4.72-2.25,5.44-4.35.03-.13.06-.25.08-.38.21-1.73-2.41-5.18-4.16-5.27Z" style="fill:#fff;"/><path d="M767.4,352.94c-1.02-6.09-5.41-12.52-12.86-14.11-6.73-1.44-12.79,1.88-16.28,6.2-5.27,6.54-4.22,13.68-3.07,17.84.27.96.54,1.77.74,2.36.25.74.39,1.17.28,1.22l-.07.04c.22.36.46.7.7,1.04,2.69,3.75,6.8,6.49,11.72,7.37,4.23.74,8.38-.02,11.89-1.91-.41-.31-.81-.63-1.23-.93.68-.53,1.33-1.07,1.94-1.64.62-.57,1.2-1.16,1.74-1.78,3.83-4.33,5.56-9.57,4.52-15.69ZM741.61,347.41c.28-1.2,2.86-2.86,4.05-2.49.75.23,1.57.94,2.17,1.78.52.38.93.79,1.02,1.16.1.3.07.67-.01,1.06.02.2.02.38-.01.54,0,.04,0,.09-.01.12-.04.1-.07.19-.12.28-.1.19-.25.37-.42.56-.09.09-.17.17-.27.26-.28.42-.63.8-.99,1.11-.21.19-.43.33-.65.44-.1.04-.2.07-.32.1-.35.06-.75.02-1.19-.1-.1-.02-.19-.06-.28-.1-.16,0-.31-.01-.44-.05-1.42-.35-2.88-3.15-2.52-4.68Z" style="fill:#042352;"/><path d="M769.89,359.95c-1.02,5.79-4.64,10.45-9.45,13.02-.41-.31-.82-.62-1.24-.93,6.32-4.89,9.52-11.27,8.2-19.1-1.03-6.09-5.41-12.52-12.86-14.12-6.74-1.44-12.8,1.87-16.28,6.2-7.98,9.91-1.48,21.17-2.06,21.42l-.08.04c-2.31-3.73-3.33-8.27-2.51-12.92,1.77-10.02,11.32-16.7,21.33-14.94s16.7,11.32,14.94,21.33Z" style="fill:#042352;"/><path d="M748.84,348.91c.09-.39.11-.76.02-1.06-.11-.36-.51-.78-1.02-1.15.53.73.92,1.54,1.01,2.22Z" style="fill:#042352;"/><path d="M744.57,352.13c.66.25,1.32.32,1.79.09.6-.29,1.19-.88,1.65-1.55-.92.81-2.4,1.46-3.44,1.46Z" style="fill:#042352;"/><path d="M748.01,350.68c.4-.35.7-.73.8-1.1.06-.2.06-.43.03-.67-.13.58-.44,1.2-.83,1.77Z" style="fill:#fff;"/><path d="M747.32,343.61c-2.23-.11-5.59,2.19-6.3,4.1-.03.1-.05.21-.05.31-.13,1.99,2.98,5.37,5,5.58,1.86.19,4.72-2.25,5.44-4.35.03-.13.06-.25.08-.38.21-1.73-2.41-5.18-4.16-5.27Z" style="fill:#fff;"/><path d="M666.7,281.82c-1.98,0-3.96.35-5.83,1.06-1.11.42-1.91,1.68-2.03,2.48.27.61,1.08,1.58,1.57,1.88,10.62,2.77,18.14,7.04,25.66,14.62.52-2.95-.46-6.2-3.08-10.43-3.7-5.94-9.94-9.62-16.28-9.62Z" style="fill:#fff;"/><path d="M737.52,311.66c10.04-5.52,19.22-5.64,25.95-5.72,2.5-.03,6.28-.08,7.03-.65,0,0,.09-.12.19-.44.03-.79-.71-2.72-1.55-3.38-3.44-2.75-7.59-4.2-11.97-4.2-8.06,0-15.92,4.83-20.04,12.32-.38.68-.53,1.44-.57,2.04.21.01.43.03.65.03h.31Z" style="fill:#fff;"/></svg>