<?xml version="1.0" encoding="UTF-8"?><svg id="Calque_1" xmlns="http://www.w3.org/2000/svg" viewBox="0 0 640.01 640"><path d="M274.41,361.16c.26-.57.5-1.15.72-1.73-.22.58-.46,1.16-.72,1.73Z" style="fill:#fff;"/><path d="M229.56,354.22c-.1-.65-.19-1.31-.24-1.96.06.65.14,1.31.24,1.96Z" style="fill:#fff;"/><path d="M230.84,359.16c.24.66.51,1.31.8,1.96-.29-.65-.56-1.3-.8-1.96Z" style="fill:#fff;"/><path d="M231.82,361.53c.3.65.63,1.3.99,1.93-.36-.64-.69-1.28-.99-1.93Z" style="fill:#fff;"/><path d="M276.42,354.79c.08-.44.17-.89.23-1.33-.06.45-.15.89-.23,1.33Z" style="fill:#fff;"/><path d="M276.74,352.66c.04-.41.09-.83.12-1.25-.03.42-.07.83-.12,1.25Z" style="fill:#fff;"/><path d="M275.93,356.93c.13-.48.26-.96.36-1.45-.11.48-.23.97-.36,1.45Z" style="fill:#fff;"/><path d="M275.79,357.47c-.16.53-.34,1.06-.53,1.58.19-.52.37-1.05.53-1.58Z" style="fill:#fff;"/><path d="M231.81,338.73c-.31.64-.59,1.29-.85,1.96.25-.66.54-1.32.85-1.96Z" style="fill:#fff;"/><path d="M230.9,340.86c-.25.67-.48,1.34-.67,2.03.19-.68.42-1.36.67-2.03Z" style="fill:#fff;"/><path d="M229.72,344.99c.14-.68.29-1.36.48-2.03-.19.67-.34,1.35-.48,2.03Z" style="fill:#fff;"/><path d="M229.66,345.34c-.12.66-.22,1.32-.29,1.99.07-.67.16-1.33.29-1.99Z" style="fill:#fff;"/><path d="M276.88,350.53c.01-.39.03-.78.02-1.18,0,.39,0,.78-.02,1.18Z" style="fill:#fff;"/><path d="M229.34,347.7c-.06.68-.1,1.37-.11,2.05,0-.69.05-1.37.11-2.05Z" style="fill:#fff;"/><path d="M229.65,354.7c.12.66.25,1.32.42,1.97-.17-.66-.31-1.31-.42-1.97Z" style="fill:#fff;"/><path d="M230.16,357c.17.62.36,1.24.57,1.85-.21-.61-.4-1.23-.57-1.85Z" style="fill:#fff;"/><path d="M229.23,349.89c0,.65.02,1.31.07,1.96-.04-.65-.07-1.31-.07-1.96Z" style="fill:#fff;"/><path d="M261.05,337.22s.06-.04.09-.06c.04-.03.08-.07.12-.1-.06.05-.12.08-.18.13-.01,0-.02.02-.03.02Z" style="fill:#fff;"/><path d="M264.28,335.68c.2-.02.42.02.64.08-.22-.06-.44-.1-.64-.08,0,0,0,0,0,0Z" style="fill:#fff;"/><path d="M265.86,336.16c.25.14.5.31.74.5.01,0,.02.01.03.02-.01,0-.02-.02-.04-.03-.25-.19-.5-.35-.74-.49Z" style="fill:#fff;"/><path d="M264.23,335.69c-.26.03-.53.09-.81.18.28-.09.55-.15.81-.18Z" style="fill:#fff;"/><path d="M263.83,336.04c.16-.03.33-.06.48-.07-.03,0-.06-.01-.09-.01-.13.01-.26.06-.4.08Z" style="fill:#fff;"/><path d="M276.85,348.43c-.02-.38-.03-.76-.07-1.14.04.38.05.76.07,1.14Z" style="fill:#fff;"/><path d="M254.87,267.19c-2.51.34-4.96,1.14-7.21,2.36-1.33.73-2.13,2.46-2.15,3.51.45.73,1.64,1.82,2.32,2.12,13.96,1.67,24.25,5.79,35.11,14.1.15-3.83-1.67-7.79-5.73-12.7-5.73-6.89-14.29-10.49-22.34-9.39Z" style="fill:#fff;"/><path d="M263.61,336.08c-.12.03-.23.05-.36.1.12-.04.24-.07.36-.1Z" style="fill:#fff;"/><path d="M183.57,422.09c.88-2.9,2.2-6.75,4.18-11.11,1.56-3.46,6.38-13.55,15.79-24.08,10.77-12.06,22.53-19.07,30.52-22.96-1.5-1.26-4.56-4.18-5.78-8.86,0,0-.74-2.88-.36-6.17.72-6.23,7.85-24.45,24.26-24.57,16.75-.11,24.9,18.78,24.6,26.57-.23,6.04-2.57,11.49-6.25,15.73h.02c2.56.96,5.12,1.92,7.68,2.88.36-2.1.72-4.2,1.08-6.3,1.17-2.35,9.76-20.39.93-37.4-1.32-2.55-6.56-12.65-17.68-16.44-6.5-2.21-12.36-1.37-16.47-.77-7.4,1.07-13.19,3.72-18.07,6.46-35.72,20.11-50.56,54.44-50.56,54.44-5.55,12.85-5.65,20-5.63,22.11.13,14.83,7.92,25.78,11.74,30.46Z" style="fill:#fff;"/><path d="M265.64,336.05c-.18-.09-.35-.16-.51-.22.17.06.34.13.51.22Z" style="fill:#fff;"/><path d="M239.33,329.36c-1.3,1.03-2.47,2.15-3.52,3.35,1.05-1.19,2.23-2.31,3.53-3.34,10.95-8.72,25.77-5.43,33.21,5.99.76,1.17,1.42,2.38,1.98,3.6-.56-1.23-1.21-2.43-1.97-3.6-7.45-11.43-22.26-14.71-33.22-6Z" style="fill:#fff;"/><path d="M275.81,342.41c-.12-.41-.24-.82-.38-1.23.14.41.26.82.38,1.23Z" style="fill:#fff;"/><path d="M275.19,340.57c-.18-.46-.35-.93-.55-1.38.2.46.38.92.55,1.38Z" style="fill:#fff;"/><path d="M276.31,344.35c-.08-.38-.16-.77-.26-1.15.1.38.17.77.26,1.15Z" style="fill:#fff;"/><path d="M263.15,335.97c-.21.08-.42.17-.63.28.21-.11.42-.2.63-.28Z" style="fill:#fff;"/><path d="M262.2,336.43c-.18.11-.36.22-.55.34.18-.12.36-.24.55-.34Z" style="fill:#fff;"/><path d="M231.92,338.5c.32-.65.67-1.3,1.05-1.93-.38.63-.73,1.27-1.05,1.93Z" style="fill:#fff;"/><path d="M271.02,366.9h0c1.31-1.77,2.42-3.63,3.3-5.55-.88,1.92-1.99,3.78-3.3,5.55Z" style="fill:#fff;"/><path d="M276.5,345.24c.07.37.11.75.16,1.13-.05-.38-.09-.75-.16-1.13Z" style="fill:#fff;"/><path d="M363.11,351.38c-.02.14-.03.29-.05.43.02-.14.03-.29.05-.43Z" style="fill:#fff;"/><path d="M362.9,355.19c0,.13,0,.26,0,.39,0-.13,0-.26,0-.39Z" style="fill:#fff;"/><path d="M362.9,354.13s0,0,0,0c0,0,0,0,0,0Z" style="fill:#fff;"/><path d="M363.44,360.14c.01.06.03.13.04.19-.01-.06-.03-.13-.04-.19Z" style="fill:#fff;"/><path d="M233,336.53c.8-1.31,1.71-2.57,2.75-3.75-1.04,1.18-1.96,2.44-2.75,3.75Z" style="fill:#fff;"/><path d="M379.91,330.79c-4.66,1.52-8.56,4.52-11.38,8.04,2.83-3.52,6.73-6.52,11.38-8.04Z" style="fill:#fff;"/><path d="M363.71,361.36s.01.05.02.07c0-.02-.01-.05-.02-.07Z" style="fill:#fff;"/><path d="M366.24,342.21c-.19.33-.38.66-.55.99.17-.33.36-.66.55-.99Z" style="fill:#fff;"/><path d="M365.26,344.09c-.12.26-.24.51-.35.77.11-.26.23-.51.35-.77Z" style="fill:#fff;"/><path d="M363.37,349.81c-.04.18-.07.37-.1.55.03-.18.07-.36.1-.55Z" style="fill:#fff;"/><path d="M472.07,187.75c-2.2-1.07-4.48-1.01-6.39-.75l-.15.02c-1.56.23-3.13.5-4.68.81-14.38,2.76-28.43,8.64-41.27,17.26,18.68,12.28,35.67,26.98,50.72,43.86,1.82-5.09,3.55-10.42,4.98-15.88,3.17-12.14,4.81-25.01,2.69-37.89-1.57-4.2-3.72-6.37-5.92-7.42Z" style="fill:#fff;"/><path d="M182.77,175.23c-3.61.49-7.44,2-8.62,9.28-2.68,16.46-1.39,32.97,4.06,51.27,16.31-15.83,34.02-28.87,53.69-39.54-17.96-14.43-38.78-22.43-49.13-21.02Z" style="fill:#fff;"/><path d="M362.47,292.31c10.95-8.12,21.74-9.74,29.66-10.91,2.94-.44,7.39-1.1,8.18-1.9,0,0,.08-.15.15-.55-.09-.94-1.27-3.09-2.36-3.74-4.5-2.69-9.62-3.73-14.78-3.03-9.5,1.3-17.99,8.25-21.63,17.73-.34.86-.39,1.78-.35,2.5.24-.02.51-.03.77-.07l.36-.05Z" style="fill:#fff;"/><path d="M448.34,435.46c4.28-4.01,13.42-13.72,15.71-28.42.49-3.14,1.5-11.84-4.25-27.83-1.62-4.51-16.64-44.43-54.98-61.73-8.81-3.97-14.83-4.94-20.72-4.03-15.85,2.46-23.92,17.51-24.68,18.98-8.32,16.11-1.11,32.08-.17,34.08l.61,3.45,4.84-2.27.04-.02c-1.41-2.65-2.38-5.55-2.81-8.62,0,0-.33-2.32-.23-4.58.27-6.33,10.12-26.18,26.54-24.69,16.24,1.47,20.97,22.2,22.03,26.85.82,3.6.35,5.94-.05,7.24-1.47,4.77-5.55,7.31-7.14,8.19,5.09,1.55,22.26,7.47,34.31,25.22,11.01,16.22,11.14,32.61,10.94,38.18Z" style="fill:#fff;"/><path d="M363.73,348.3c-.04.16-.09.33-.13.49.04-.16.09-.33.13-.49Z" style="fill:#fff;"/><path d="M364.54,345.78c-.09.23-.16.45-.24.68.08-.23.15-.45.24-.68Z" style="fill:#fff;"/><path d="M362.96,356.61c0,.09.02.19.02.28,0-.09-.02-.19-.02-.28Z" style="fill:#fff;"/><path d="M410.21,353.12c-.01-.12-.03-.24-.04-.36.01.12.03.24.04.36Z" style="fill:#fff;"/><path d="M409.99,351.35c-.03-.19-.06-.38-.1-.57.03.19.07.38.1.57Z" style="fill:#fff;"/><path d="M409.64,349.52c-.04-.2-.09-.39-.13-.59.05.2.09.39.13.59Z" style="fill:#fff;"/><path d="M388.24,329.78c-1.82-.14-3.58-.04-5.27.25,1.68-.29,3.44-.38,5.26-.24,10.77.8,18.16,8.99,20.77,17.33.03.09.05.18.08.27-.03-.09-.04-.17-.07-.26-2.61-8.35-10-16.54-20.76-17.34Z" style="fill:#fff;"/><path d="M333.89,478.79c12.56-1.72,24.36-5.65,34.12-11.35.23-.14,23.42-14.66,24.42-36.95.71-15.55-7.66-28.28-11.3-33.04-5.43-7.1-12.7-12.94-21.06-16.83-3.32-1.55-6.63-3.1-9.95-4.66,1-.61,2-1.22,2.99-1.83-5.58-3.84-14.22-8.56-25.51-10.46-8.96-1.51-16.15-.71-20.14-.16-6.49.89-13.31,2.71-20.2,5.4-2.48,1.06-4.95,2.12-7.43,3.18,3.48,1.03,6.95,2.06,10.43,3.09-4.97,1.56-9.95,3.13-14.92,4.69-8.03,3.11-19,9.29-25.68,21.12-11.17,19.76-6.48,46.15,5.19,56.54,19.28,17.15,49.56,25.31,79.04,21.28ZM300.36,380.24c11.22-5.46,25.19-4.85,36.03,1.22,7.14,3.99,9.33,12.39,4.16,19.51-5.28,7.27-13.77,13.13-22.86,13.1-10.05-.06-18.69-7.21-23.27-15.46-3.78-6.81-1.18-14.91,5.94-18.37ZM275.21,417.57c2.2-1.49,5.6-.68,7.4,1.47,17.81,21.43,50.15,22.46,69.19,1.45,1.58-1.74,7.02-.74,7.66.85.64,1.61.35,5.26-1.15,6.83-23.04,24.12-62.34,22.54-83.46-3.32-1.67-2.04-1.25-6.19.35-7.29Z" style="fill:#fff;"/><path d="M406.38,368.89c-.16.26-.32.52-.49.77.17-.26.33-.51.49-.77Z" style="fill:#fff;"/><path d="M407.29,367.28c-.14.27-.3.54-.45.8.15-.27.3-.53.45-.8Z" style="fill:#fff;"/><path d="M410.24,357.13c.01-.16.02-.33.03-.49,0,.16-.02.33-.03.49Z" style="fill:#fff;"/><path d="M410.31,355.17c0-.09,0-.18,0-.27,0,.09,0,.18,0,.27Z" style="fill:#fff;"/><path d="M409.77,360.55c.01-.05.02-.11.03-.16-.01.05-.02.11-.03.16Z" style="fill:#fff;"/><path d="M408.6,364.4c.08-.21.16-.43.24-.64-.08.21-.16.43-.24.64Z" style="fill:#fff;"/><path d="M409.19,362.7c.06-.18.12-.36.17-.54-.05.18-.11.36-.17.54Z" style="fill:#fff;"/><path d="M410.06,358.87c.02-.16.04-.32.06-.48-.02.16-.04.32-.06.48Z" style="fill:#fff;"/><path d="M407.93,365.99c.1-.21.19-.42.28-.64-.09.21-.18.43-.28.64Z" style="fill:#fff;"/><path d="M488.56,275.76c.04-.09.08-.17.12-.26,18.04-38.78,22.97-71.84,14.69-98.28-4.08-13.01-14.24-20.17-28.58-20.15-5.28,0-10.91.07-16.65.86-2.29.31-4.47.72-6.61,1.24-.39.09-.77.18-1.15.28-20.43,5.27-39.76,15.38-60.72,31.79-32.37-12.19-64.15-15.92-97.13-11.4-9.84,1.35-20.02,3.48-30.31,6.32l-11.37-9.62c-27.48-23.29-59.41-33.07-76.76-30.69-12.61,1.73-21.4,9.05-25.41,21.2-4.96,15.04-5.1,41.65-2.11,57.05,2.51,12.96,6.1,25.09,10.7,39.08-3.17,4.42-6.34,8.94-9.45,13.67-11.03,16.66-21.38,35.54-28.68,58.86-1.67,5.34-2.65,10.37-2,17.55l.31,3.31,14.71-.63c-7.47,14.96-12.99,28.6-8.8,36.62,1.17,2.28,3.72,5.14,9.12,5.88,1.64.21,4.57,1.08,6.66,1.84,8.85,12.74,18.94,24.37,30.12,34.76,32.15,29.95,73.17,49.7,119.13,56.82,21.93,3.41,44.22,3.6,66.23.59,55.46-7.59,105.24-34.81,140.14-76.66,1.35-1.64,3.4-2.71,5.75-3.03.64-.09,1.28-.12,1.94-.09,1.03.05,2,0,2.92-.12,3.33-.46,5.93-2.09,7.49-4.76,4.65-7.85-.7-23.18-6.15-37.48l10.78,1.44,1.09-.73c.16-.11.32-.24.48-.36,3.01-2.48,4.52-8.13,3.84-11.86-5.08-27.77-16.2-54.76-33.94-82.4l-.4-.63ZM248.73,400.15c7.01-12.39,18.4-18.82,26.74-22.04l8.13-3.15-14-5.75-5.19-2.13-1.53,1c-1.59,1.04-3.33,1.86-5.12,2.46-.92.3-2.17.7-3.68.91-.78.11-1.56.16-2.32.12-1.96-.05-3.3-.48-5.89-1.37-2.84-.98-5.59-2.27-8.23-3.84l-1.45-.87-.9.33-.68.27c-.48.19-.97.38-1.45.58-14.1,5.72-26.42,15.97-36.64,30.43-6.48,9.21-9.78,17.91-10.77,28.82-17.69-15.64-22.15-38.32-10.8-58.18,14.35-25.17,36.59-46.25,61.02-57.88,3.81-1.82,7.71-3.02,11.62-3.56,13.99-1.91,26.84,4.66,34.37,17.59,6.28,10.73,6.45,23.18.56,39.13l-2.68,7.25,7.2-2.81c6.97-2.71,13.84-4.54,20.42-5.45,15.25-2.09,29.32.55,43.05,8.03l6.35,3.47-1.27-7.13c-2.33-13.21-3.74-24.11,1.22-34.31,5.5-11.35,15.35-18.78,27.05-20.38,7.87-1.08,15.94.65,23.31,4.99,22.55,13.27,42.06,34.63,54.94,60.15,9.47,18.77,6.17,39.54-8.62,54.22l-5.14,4.41c-2.04-24.54-17.63-47.28-42.93-62.07-.36-.21-.73-.43-1.09-.64l-1.24-.69-.57-.33-1.76,1.1c-2.57,1.6-5.33,2.73-8.21,3.34-.61.14-1.21.24-1.77.31-1.34.18-2.69.24-3.97.21-.97-.03-3.26-.1-5.52-.84-3.82-1.23-6.44-4-7.98-6.1l-1.69-2.31-4.72,2.21-.58.27-12.56,5.86,6.73,3.15c8.61,4.03,16.14,10.04,21.74,17.4,3.76,4.91,12.41,18.1,11.69,34.35-.91,20.01-19.13,35.05-25.43,38.74-9.86,5.77-21.78,9.74-34.43,11.47-29.62,4.05-60.09-4.2-79.56-21.51-14.95-13.3-15.36-42.23-5.77-59.22ZM286.23,291.95c-.41.23-1.24.57-2.29.72-.96.13-1.56.04-1.74-.02-10.77-8.51-20.79-12.64-34.58-14.28-1.84-.22-4.89-3.39-5.11-4.65-.41-2.33,1.04-5.86,3.87-7.41,2.65-1.42,5.45-2.34,8.4-2.75,9.18-1.26,18.9,2.78,25.35,10.56,5.6,6.78,7.45,12.14,6.11,17.84ZM235.95,197.47c-21.89,11.28-41.21,25.53-58.81,43.4-6.79-20.1-8.6-37.95-5.7-55.77,1.15-7.11,4.7-10.84,11.16-11.72,13.89-1.9,37.67,10.43,53.36,24.1ZM403.47,279.07c-.53,3.55-2.75,4.26-11.25,5.51-7.6,1.13-18.01,2.68-28.32,10.49-.11.07-.63.28-1.58.41-1.74.24-3.29-.04-3.81-.29-1.08-1.62-1.23-4.5-.32-6.84,4.06-10.58,13.6-18.36,24.28-19.82,5.93-.81,11.8.39,16.96,3.47,2.48,1.47,4.27,5.45,4.04,7.06ZM415.36,204.5c13.59-9.99,28.73-16.8,44.32-19.84,1.67-.35,3.34-.63,5-.88l.17-.02c9.25-1.27,13.54,4.83,15.52,10.3,2.51,14.77.02,29.41-4.01,42.89-1.59,5.34-3.42,10.51-5.3,15.42l-.13.33c-16.13-18.96-34.79-35.15-55.58-48.19Z" style="fill:#d34a28;"/><path d="M492.53,275.48c17.86-38.95,22.63-72.34,14.16-99.3-4.51-14.37-16.14-22.61-31.9-22.6-5.41,0-11.17.07-17.13.89-2.48.34-4.84.79-7.17,1.37-.33.06-.66.16-.99.24-20.38,5.25-39.68,15.19-60.44,31.21-32.29-11.85-64.05-15.42-96.98-10.92-9.44,1.29-19.18,3.27-28.99,5.93l-9.98-8.45c-20.73-17.56-54.45-34.9-79.48-31.48-14.02,1.92-23.79,10.07-28.25,23.56-5.12,15.57-5.28,42.97-2.2,58.82,2.43,12.6,5.87,24.4,10.25,37.83-2.11,2.94-4.21,5.95-6.29,9.04-11.98,17.66-23.39,37.76-31.31,63.03-1.79,5.74-2.84,11.15-2.14,18.9l.59,6.61,6.63-.28,5.57-.24c-6.65,14.02-10.59,26.11-6.21,34.5,1.57,3.01,4.88,6.79,11.76,7.71,1.06.15,3.1.7,4.92,1.31,9.66,13.76,20.74,26.21,33.04,37.24,32.17,28.84,72.69,47.87,117.88,54.89,22.25,3.45,44.89,3.65,67.24.59,56.32-7.71,106.88-35.37,142.35-77.87.78-.97,2.08-1.62,3.54-1.82.43-.06.87-.08,1.29-.05,1.25.06,2.44,0,3.56-.15,4.41-.6,7.88-2.83,10.02-6.44,4.6-7.79,1.75-19.55-3.88-35.03l3.75.5,2.61.34,1.83-1.23.37-.24c4.6-3.1,6.69-10.62,5.78-15.71-5.12-27.93-16.18-55.01-33.8-82.7ZM501.36,366.09c6.52,17.01,16.4,41.25,3.53,43.01-.69.09-1.46.13-2.27.1-.87-.06-1.74,0-2.58.11-3.08.42-5.97,1.89-7.95,4.25-35.14,42.16-84.89,68.19-137.94,75.45-21.45,2.94-43.44,2.8-65.23-.57-46.01-7.13-87.84-27.28-120.4-58.91-9.97-9.64-19.06-20.37-27.12-32.11-2.19-.88-6.13-2.11-8.44-2.43-15.58-2.12-3.68-25.88,5.01-42.79l-17.36.74c-.56-6.24.15-10.73,1.86-16.19,6.35-20.3,15.12-37.54,26.09-54.59,3.9-6.1,8.11-12.17,12.58-18.36-4.4-13.3-8.44-26.42-11.14-40.36-2.99-15.46-2.58-41.44,2-55.32,3.88-11.76,12.17-17.41,22.57-18.83,22.28-3.05,54.34,13.21,74.05,29.9l12.78,10.82c10.69-3.06,21.2-5.31,31.62-6.73,32.68-4.47,64.38-.79,97.24,11.92,18.36-14.61,38.25-26.52,60.99-32.37.46-.12.9-.23,1.36-.33,2.02-.49,4.01-.85,5.99-1.12,5.39-.74,10.66-.83,16.19-.83,12.06,0,21.46,5.63,25.26,17.73,9.19,29.34-.09,63.62-12.94,92.32-.84,1.83-1.68,3.65-2.52,5.44,3.11,4.77,6.08,9.58,8.86,14.44,12.42,21.61,21.5,44.26,26.02,68.95.38,2.14-.31,5.43-1.64,7.42-.35.54-.76,1-1.19,1.29l-15.29-2.03ZM483.77,193.17c-3.19-9.06-9.84-14.17-19.38-12.86l-.21.03c-1.88.27-3.73.6-5.57.96-17.92,3.59-34.73,11.81-49.38,23.54,23,13.74,43.18,31.07,60.46,51.76.59.36,2.19,1.26,2.85,1.17.14-.02.23-.08.27-.18l1.51-3.98c1.38-3.63,2.69-7.27,3.9-10.91,5.4-16.43,8.45-32.91,5.56-49.52ZM421.59,204.36c12.18-8.18,25.52-13.76,39.16-16.38,1.47-.29,2.96-.55,4.44-.77l.14-.02c1.81-.25,3.98-.3,6.07.71,2.08,1,4.12,3.05,5.62,7.04,2.01,12.22.45,24.44-2.56,35.96-1.36,5.19-3,10.24-4.73,15.08-14.29-16.02-30.41-29.98-48.14-41.63ZM408.92,313.69c-8.36-4.93-17.24-6.57-25.55-5.44-12.46,1.7-23.58,9.67-29.72,22.3-5.4,11.11-3.93,22.74-1.49,36.43-14.72-8.03-29.79-10.53-45.19-8.42-7,.96-14.07,2.87-21.2,5.66,5.6-15.23,6.62-29.32-.83-42.1-8.19-14.04-22.5-21.37-37.86-19.27-4.17.57-8.42,1.84-12.64,3.85-25.87,12.32-48.19,34.15-62.55,59.3-13.27,23.25-6.2,50.38,17.01,66.85.06-13.66,3.12-23.37,10.43-33.74,9.36-13.27,21.51-24.06,36.51-29.78,3.48,2.09,6.59,3.36,8.89,4.14,2.64.92,4.4,1.5,6.92,1.58,1.04.03,2.01-.05,2.89-.17,1.77-.24,3.22-.7,4.3-1.04,2.59-.85,4.57-1.98,5.93-2.85.52.21,1.02.42,1.54.63,2.64,1.08,5.28,2.16,7.9,3.24-6.15,2.39-20.17,8.83-28.51,23.58-12.49,22.09-7.17,51.37,6.48,63.53,21.35,19,53.29,26.34,82.34,22.36,12.87-1.76,25.16-5.74,35.72-11.91,5.28-3.09,26.11-18.88,27.15-41.59.83-18.68-9.84-33.27-12.4-36.62-8.04-10.52-17.64-15.91-23.04-18.44,2.23-1.02,4.44-2.06,6.65-3.1.63-.3,1.26-.58,1.88-.87,1.51,2.07,4.68,5.73,9.71,7.36,2.68.88,5.28.98,6.49,1.01.79.03,2.45.05,4.55-.24.64-.09,1.3-.21,2-.36,3.98-.82,7.13-2.4,9.35-3.79,25.09,14.29,43.32,38.46,42.46,67.1l10.77-9.27c15.63-15.44,19.66-37.95,9.38-58.35-12.59-24.96-32.26-47.45-56.27-61.58ZM450.95,428.63c-4.1-22.94-19.48-43.81-43.16-57.86-.58-.36-1.15-.69-1.74-1.03l-.88-.49-2.74-1.57-3.52,2.2c-2.21,1.39-4.61,2.37-7.08,2.9-.51.11-1.01.19-1.53.26-1.15.16-2.29.21-3.38.18-.85-.02-2.79-.09-4.57-.67-2.94-.95-5.01-3.16-6.25-4.85l-3.37-4.63-5.2,2.43-2.13.99-.97.45-4.82,2.26-.61-3.43c-2.23-12.58-3.58-22.93.92-32.18,4.98-10.28,13.87-17.01,24.4-18.45,7.08-.97,14.37.6,21.09,4.54,21.97,12.95,41.01,33.79,53.58,58.72,8.74,17.34,5.72,36.52-7.89,50.1l-.16.13ZM390.44,430.52c-.97,21.65-23.49,35.76-23.72,35.89-9.47,5.54-20.94,9.36-33.14,11.03-28.64,3.92-58.05-4.01-76.78-20.67-11.33-10.09-15.89-35.72-5.04-54.92,6.48-11.49,17.14-17.49,24.94-20.51l16.29-6.28-7.74-3.17,3.03-1.19c6.7-2.62,13.32-4.39,19.62-5.25,14.47-1.98,27.86.52,40.91,7.64l1.14.62-4.42,2.06,13.46,6.3c8.12,3.79,15.18,9.45,20.46,16.35,3.53,4.62,11.66,16.99,10.97,32.09ZM264.03,363.17l-3.06,2c-1.34.87-2.79,1.57-4.3,2.06-.84.27-1.87.61-3.07.77-.59.08-1.16.12-1.76.1-1.39-.04-2.32-.31-4.85-1.2-2.6-.89-5.15-2.09-7.57-3.53l-2.91-1.74-3.15,1.2h-.02c-.8.31-1.6.64-2.38.98-14.35,6.05-26.89,16.56-37.3,31.29-5.41,7.67-8.72,15.01-10.4,23.42-12.34-14.13-14.66-32.64-5.31-49.07,14-24.54,35.69-45.13,59.48-56.46,3.49-1.65,7.06-2.76,10.6-3.24,12.56-1.72,24.12,4.23,30.91,15.89,5.71,9.77,5.81,21.27.32,36.18l-2.45,6.6-4.54-1.87-.98-.39-3.87-1.59-3.39-1.4ZM362.79,298.92c1.31-.18,2.47-.55,3.19-1.09,19.48-14.74,38.99-5.48,40.91-18.25.5-3.28-2.2-8.49-5.68-10.58-6.13-3.65-12.82-4.79-19.21-3.92-11.68,1.6-22.42,9.95-27.07,22.03-1.31,3.39-1.07,7.69.92,10.33,1.09,1.41,4.31,1.83,6.94,1.47ZM361.43,289.61c3.62-9.43,12.07-16.34,21.51-17.63,5.13-.7,10.23.34,14.7,3.01,1.09.64,2.26,2.78,2.35,3.72-.07.4-.15.55-.15.55-.79.79-5.21,1.45-8.13,1.89-7.88,1.17-18.61,2.78-29.5,10.85l-.36.05c-.26.04-.52.05-.76.07-.04-.71,0-1.63.34-2.49ZM239.07,274.33c.49,2.79,4.74,7.09,8.12,7.51,12.77,1.5,22.28,5.17,32.93,13.61.93.75,2.6.91,4.29.68,2.34-.32,4.69-1.41,5.03-2.72,2.27-8.4-1.62-15.4-6.64-21.49-7.1-8.56-17.94-13.24-28.52-11.79-3.24.44-6.47,1.46-9.56,3.13-3.97,2.18-6.35,7.1-5.65,11.08ZM255.22,267.01c8.01-1.1,16.52,2.48,22.22,9.33,4.04,4.89,5.84,8.82,5.69,12.63-10.8-8.26-21.03-12.36-34.92-14.02-.67-.29-1.86-1.38-2.31-2.11.02-1.04.82-2.76,2.14-3.49,2.24-1.22,4.67-2.01,7.17-2.35ZM242.01,198.33c-15.58-15.09-43.04-30.71-59.9-28.4-7.31,1-12.62,5.38-14.13,14.61-3.39,21-.23,41.38,7.75,62.81,19.13-20.31,40.72-36.55,66.27-49.02ZM183.06,176.82c9.84-1.35,29.64,6.26,46.72,19.99-18.71,10.14-35.55,22.54-51.06,37.6-5.19-17.4-6.41-33.1-3.86-48.76,1.12-6.93,4.77-8.36,8.2-8.83ZM465.2,375.27c-12.59-24.96-32.26-47.45-56.27-61.58-8.36-4.93-17.24-6.57-25.55-5.44-12.46,1.7-23.58,9.67-29.72,22.3-5.4,11.11-3.93,22.74-1.49,36.43-14.72-8.03-29.79-10.53-45.19-8.42-7,.96-14.07,2.87-21.2,5.66,5.6-15.23,6.62-29.32-.83-42.1-8.19-14.04-22.5-21.37-37.86-19.27-4.17.57-8.42,1.84-12.64,3.85-25.87,12.32-48.19,34.15-62.55,59.3-13.27,23.25-6.2,50.38,17.01,66.85.06-13.66,3.12-23.37,10.43-33.74,9.36-13.27,21.51-24.06,36.51-29.78,3.48,2.09,6.59,3.36,8.89,4.14,2.64.92,4.4,1.5,6.92,1.58,1.04.03,2.01-.05,2.89-.17,1.77-.24,3.22-.7,4.3-1.04,2.59-.85,4.57-1.98,5.93-2.85.52.21,1.02.42,1.54.63,2.64,1.08,5.28,2.16,7.9,3.24-6.15,2.39-20.17,8.83-28.51,23.58-12.49,22.09-7.17,51.37,6.48,63.53,21.35,19,53.29,26.34,82.34,22.36,12.87-1.76,25.16-5.74,35.72-11.91,5.28-3.09,26.11-18.88,27.15-41.59.83-18.68-9.84-33.27-12.4-36.62-8.04-10.52-17.64-15.91-23.04-18.44,2.23-1.02,4.44-2.06,6.65-3.1.63-.3,1.26-.58,1.88-.87,1.51,2.07,4.68,5.73,9.71,7.36,2.68.88,5.28.98,6.49,1.01.79.03,2.45.05,4.55-.24.64-.09,1.3-.21,2-.36,3.98-.82,7.13-2.4,9.35-3.79,25.09,14.29,43.32,38.46,42.46,67.1l10.77-9.27c15.63-15.44,19.66-37.95,9.38-58.35ZM450.95,428.63c-4.1-22.94-19.48-43.81-43.16-57.86-.58-.36-1.15-.69-1.74-1.03l-.88-.49-2.74-1.57-3.52,2.2c-2.21,1.39-4.61,2.37-7.08,2.9-.51.11-1.01.19-1.53.26-1.15.16-2.29.21-3.38.18-.85-.02-2.79-.09-4.57-.67-2.94-.95-5.01-3.16-6.25-4.85l-3.37-4.63-5.2,2.43-2.13.99-.97.45-4.82,2.26-.61-3.43c-2.23-12.58-3.58-22.93.92-32.18,4.98-10.28,13.87-17.01,24.4-18.45,7.08-.97,14.37.6,21.09,4.54,21.97,12.95,41.01,33.79,53.58,58.72,8.74,17.34,5.72,36.52-7.89,50.1l-.16.13ZM390.44,430.52c-.97,21.65-23.49,35.76-23.72,35.89-9.47,5.54-20.94,9.36-33.14,11.03-28.64,3.92-58.05-4.01-76.78-20.67-11.33-10.09-15.89-35.72-5.04-54.92,6.48-11.49,17.14-17.49,24.94-20.51l16.29-6.28-7.74-3.17,3.03-1.19c6.7-2.62,13.32-4.39,19.62-5.25,14.47-1.98,27.86.52,40.91,7.64l1.14.62-4.42,2.06,13.46,6.3c8.12,3.79,15.18,9.45,20.46,16.35,3.53,4.62,11.66,16.99,10.97,32.09ZM264.03,363.17l-3.06,2c-1.34.87-2.79,1.57-4.3,2.06-.84.27-1.87.61-3.07.77-.59.08-1.16.12-1.76.1-1.39-.04-2.32-.31-4.85-1.2-2.6-.89-5.15-2.09-7.57-3.53l-2.91-1.74-3.15,1.2h-.02c-.8.31-1.6.64-2.38.98-14.35,6.05-26.89,16.56-37.3,31.29-5.41,7.67-8.72,15.01-10.4,23.42-12.34-14.13-14.66-32.64-5.31-49.07,14-24.54,35.69-45.13,59.48-56.46,3.49-1.65,7.06-2.76,10.6-3.24,12.56-1.72,24.12,4.23,30.91,15.89,5.71,9.77,5.81,21.27.32,36.18l-2.45,6.6-4.54-1.87-.98-.39-3.87-1.59-3.39-1.4ZM401.21,269.01c-6.13-3.65-12.82-4.79-19.21-3.92-11.68,1.6-22.42,9.95-27.07,22.03-1.31,3.39-1.07,7.69.92,10.33,1.09,1.41,4.31,1.83,6.94,1.47,1.31-.18,2.47-.55,3.19-1.09,19.48-14.74,38.99-5.48,40.91-18.25.5-3.28-2.2-8.49-5.68-10.58ZM361.85,292.03c-.26.04-.52.05-.76.07-.04-.71,0-1.63.34-2.49,3.62-9.43,12.07-16.34,21.51-17.63,5.13-.7,10.23.34,14.7,3.01,1.09.64,2.26,2.78,2.35,3.72-.07.4-.15.55-.15.55-.79.79-5.21,1.45-8.13,1.89-7.88,1.17-18.61,2.78-29.5,10.85l-.36.05ZM282.8,271.91c-7.1-8.56-17.94-13.24-28.52-11.79-3.24.44-6.47,1.46-9.56,3.13-3.97,2.18-6.35,7.1-5.65,11.08.49,2.79,4.74,7.09,8.12,7.51,12.77,1.5,22.28,5.17,32.93,13.61.93.75,2.6.91,4.29.68,2.34-.32,4.69-1.41,5.03-2.72,2.27-8.4-1.62-15.4-6.64-21.49ZM283.13,288.97c-10.8-8.26-21.03-12.36-34.92-14.02-.67-.29-1.86-1.38-2.31-2.11.02-1.04.82-2.76,2.14-3.49,2.24-1.22,4.67-2.01,7.17-2.35,8.01-1.1,16.52,2.48,22.22,9.33,4.04,4.89,5.84,8.82,5.69,12.63ZM483.77,193.17c-3.19-9.06-9.84-14.17-19.38-12.86l-.21.03c-1.88.27-3.73.6-5.57.96-17.92,3.59-34.73,11.81-49.38,23.54,23,13.74,43.18,31.07,60.46,51.76.59.36,2.19,1.26,2.85,1.17.14-.02.23-.08.27-.18l1.51-3.98c1.38-3.63,2.69-7.27,3.9-10.91,5.4-16.43,8.45-32.91,5.56-49.52ZM421.59,204.36c12.18-8.18,25.52-13.76,39.16-16.38,1.47-.29,2.96-.55,4.44-.77l.14-.02c1.81-.25,3.98-.3,6.07.71,2.08,1,4.12,3.05,5.62,7.04,2.01,12.22.45,24.44-2.56,35.96-1.36,5.19-3,10.24-4.73,15.08-14.29-16.02-30.41-29.98-48.14-41.63ZM182.12,169.93c-7.31,1-12.62,5.38-14.13,14.61-3.39,21-.23,41.38,7.75,62.81,19.13-20.31,40.72-36.55,66.27-49.02-15.58-15.09-43.04-30.71-59.9-28.4ZM183.06,176.82c9.84-1.35,29.64,6.26,46.72,19.99-18.71,10.14-35.55,22.54-51.06,37.6-5.19-17.4-6.41-33.1-3.86-48.76,1.12-6.93,4.77-8.36,8.2-8.83ZM483.77,193.17c-3.19-9.06-9.84-14.17-19.38-12.86l-.21.03c-1.88.27-3.73.6-5.57.96-17.92,3.59-34.73,11.81-49.38,23.54,23,13.74,43.18,31.07,60.46,51.76.59.36,2.19,1.26,2.85,1.17.14-.02.23-.08.27-.18l1.51-3.98c1.38-3.63,2.69-7.27,3.9-10.91,5.4-16.43,8.45-32.91,5.56-49.52ZM421.59,204.36c12.18-8.18,25.52-13.76,39.16-16.38,1.47-.29,2.96-.55,4.44-.77l.14-.02c1.81-.25,3.98-.3,6.07.71,2.08,1,4.12,3.05,5.62,7.04,2.01,12.22.45,24.44-2.56,35.96-1.36,5.19-3,10.24-4.73,15.08-14.29-16.02-30.41-29.98-48.14-41.63ZM408.92,313.69c-8.36-4.93-17.24-6.57-25.55-5.44-12.46,1.7-23.58,9.67-29.72,22.3-5.4,11.11-3.93,22.74-1.49,36.43-14.72-8.03-29.79-10.53-45.19-8.42-7,.96-14.07,2.87-21.2,5.66,5.6-15.23,6.62-29.32-.83-42.1-8.19-14.04-22.5-21.37-37.86-19.27-4.17.57-8.42,1.84-12.64,3.85-25.87,12.32-48.19,34.15-62.55,59.3-13.27,23.25-6.2,50.38,17.01,66.85.06-13.66,3.12-23.37,10.43-33.74,9.36-13.27,21.51-24.06,36.51-29.78,3.48,2.09,6.59,3.36,8.89,4.14,2.64.92,4.4,1.5,6.92,1.58,1.04.03,2.01-.05,2.89-.17,1.77-.24,3.22-.7,4.3-1.04,2.59-.85,4.57-1.98,5.93-2.85.52.21,1.02.42,1.54.63,2.64,1.08,5.28,2.16,7.9,3.24-6.15,2.39-20.17,8.83-28.51,23.58-12.49,22.09-7.17,51.37,6.48,63.53,21.35,19,53.29,26.34,82.34,22.36,12.87-1.76,25.16-5.74,35.72-11.91,5.28-3.09,26.11-18.88,27.15-41.59.83-18.68-9.84-33.27-12.4-36.62-8.04-10.52-17.64-15.91-23.04-18.44,2.23-1.02,4.44-2.06,6.65-3.1.63-.3,1.26-.58,1.88-.87,1.51,2.07,4.68,5.73,9.71,7.36,2.68.88,5.28.98,6.49,1.01.79.03,2.45.05,4.55-.24.64-.09,1.3-.21,2-.36,3.98-.82,7.13-2.4,9.35-3.79,25.09,14.29,43.32,38.46,42.46,67.1l10.77-9.27c15.63-15.44,19.66-37.95,9.38-58.35-12.59-24.96-32.26-47.45-56.27-61.58ZM450.95,428.63c-4.1-22.94-19.48-43.81-43.16-57.86-.58-.36-1.15-.69-1.74-1.03l-.88-.49-2.74-1.57-3.52,2.2c-2.21,1.39-4.61,2.37-7.08,2.9-.51.11-1.01.19-1.53.26-1.15.16-2.29.21-3.38.18-.85-.02-2.79-.09-4.57-.67-2.94-.95-5.01-3.16-6.25-4.85l-3.37-4.63-5.2,2.43-2.13.99-.97.45-4.82,2.26-.61-3.43c-2.23-12.58-3.58-22.93.92-32.18,4.98-10.28,13.87-17.01,24.4-18.45,7.08-.97,14.37.6,21.09,4.54,21.97,12.95,41.01,33.79,53.58,58.72,8.74,17.34,5.72,36.52-7.89,50.1l-.16.13ZM390.44,430.52c-.97,21.65-23.49,35.76-23.72,35.89-9.47,5.54-20.94,9.36-33.14,11.03-28.64,3.92-58.05-4.01-76.78-20.67-11.33-10.09-15.89-35.72-5.04-54.92,6.48-11.49,17.14-17.49,24.94-20.51l16.29-6.28-7.74-3.17,3.03-1.19c6.7-2.62,13.32-4.39,19.62-5.25,14.47-1.98,27.86.52,40.91,7.64l1.14.62-4.42,2.06,13.46,6.3c8.12,3.79,15.18,9.45,20.46,16.35,3.53,4.62,11.66,16.99,10.97,32.09ZM264.03,363.17l-3.06,2c-1.34.87-2.79,1.57-4.3,2.06-.84.27-1.87.61-3.07.77-.59.08-1.16.12-1.76.1-1.39-.04-2.32-.31-4.85-1.2-2.6-.89-5.15-2.09-7.57-3.53l-2.91-1.74-3.15,1.2h-.02c-.8.31-1.6.64-2.38.98-14.35,6.05-26.89,16.56-37.3,31.29-5.41,7.67-8.72,15.01-10.4,23.42-12.34-14.13-14.66-32.64-5.31-49.07,14-24.54,35.69-45.13,59.48-56.46,3.49-1.65,7.06-2.76,10.6-3.24,12.56-1.72,24.12,4.23,30.91,15.89,5.71,9.77,5.81,21.27.32,36.18l-2.45,6.6-4.54-1.87-.98-.39-3.87-1.59-3.39-1.4ZM362.79,298.92c1.31-.18,2.47-.55,3.19-1.09,19.48-14.74,38.99-5.48,40.91-18.25.5-3.28-2.2-8.49-5.68-10.58-6.13-3.65-12.82-4.79-19.21-3.92-11.68,1.6-22.42,9.95-27.07,22.03-1.31,3.39-1.07,7.69.92,10.33,1.09,1.41,4.31,1.83,6.94,1.47ZM361.43,289.61c3.62-9.43,12.07-16.34,21.51-17.63,5.13-.7,10.23.34,14.7,3.01,1.09.64,2.26,2.78,2.35,3.72-.07.4-.15.55-.15.55-.79.79-5.21,1.45-8.13,1.89-7.88,1.17-18.61,2.78-29.5,10.85l-.36.05c-.26.04-.52.05-.76.07-.04-.71,0-1.63.34-2.49ZM239.07,274.33c.49,2.79,4.74,7.09,8.12,7.51,12.77,1.5,22.28,5.17,32.93,13.61.93.75,2.6.91,4.29.68,2.34-.32,4.69-1.41,5.03-2.72,2.27-8.4-1.62-15.4-6.64-21.49-7.1-8.56-17.94-13.24-28.52-11.79-3.24.44-6.47,1.46-9.56,3.13-3.97,2.18-6.35,7.1-5.65,11.08ZM255.22,267.01c8.01-1.1,16.52,2.48,22.22,9.33,4.04,4.89,5.84,8.82,5.69,12.63-10.8-8.26-21.03-12.36-34.92-14.02-.67-.29-1.86-1.38-2.31-2.11.02-1.04.82-2.76,2.14-3.49,2.24-1.22,4.67-2.01,7.17-2.35ZM242.01,198.33c-15.58-15.09-43.04-30.71-59.9-28.4-7.31,1-12.62,5.38-14.13,14.61-3.39,21-.23,41.38,7.75,62.81,19.13-20.31,40.72-36.55,66.27-49.02ZM183.06,176.82c9.84-1.35,29.64,6.26,46.72,19.99-18.71,10.14-35.55,22.54-51.06,37.6-5.19-17.4-6.41-33.1-3.86-48.76,1.12-6.93,4.77-8.36,8.2-8.83Z" style="fill:#fff;"/><path d="M340.06,401.86c-5.13,7.06-13.37,12.76-22.2,12.72-9.76-.06-18.15-7-22.6-15.02-3.67-6.61-1.15-14.48,5.77-17.84,10.89-5.3,24.46-4.71,34.99,1.18,6.93,3.88,9.06,12.04,4.04,18.95Z" style="fill:#042352;"/><path d="M357.31,428.29c-22.38,23.43-60.55,21.89-81.06-3.22-1.62-1.98-1.21-6.02.34-7.08,2.14-1.44,5.44-.66,7.19,1.43,17.3,20.81,48.71,21.81,67.21,1.41,1.54-1.69,6.82-.72,7.44.83.62,1.56.34,5.11-1.12,6.63Z" style="fill:#042352;"/><path d="M271.28,366.16c7.03-9.44,7.96-21.47,1.52-31.36-7.4-11.36-22.13-14.63-33.02-5.96-10.4,8.25-13.07,22.36-6.44,34,.56,1.03,1.22,2.01,1.94,2.98.71.97,1.51,1.92,2.37,2.84-.6.22-1.22.45-1.8.69,4.27,3.65,9.75,5.95,15.82,6.19,5.38.21,10.41-1.25,14.65-3.9,1.17-.7,2.27-1.52,3.29-2.42.76-.63,1.45-1.32,2.12-2.05l-.79-.52c.12-.16.26-.32.35-.49ZM264.58,335.11c.66-.06,1.51.36,2.31.97,1.3,1.02,2.48,2.61,2.5,3.68.01.21-.03.44-.07.66-.26,2.21-2.9,5.26-4.84,5.31-2.03.07-5.55-2.86-5.7-4.85,0-.14.01-.28.05-.43,0-.02,0-.05,0-.07,0-.02,0-.05,0-.07v-.02s.01-.04,0-.05c.11-.96.92-2.14,1.98-3.13.19-.17.36-.33.57-.48,1.01-.82,2.18-1.42,3.18-1.51Z" style="fill:#042352;"/><path d="M278.58,350.61c-.25,6.42-2.82,12.19-6.86,16.56l-.79-.52c7.34-9.52,8.42-21.79,1.87-31.86-7.41-11.36-22.13-14.63-33.03-5.97-12.22,9.7-13.75,27.46-2.12,39.83-.62.21-1.23.45-1.82.68-5.83-4.99-9.43-12.47-9.11-20.73.55-14.32,12.62-25.47,26.94-24.92s25.47,12.6,24.92,26.92Z" style="fill:#042352;"/><path d="M264.53,345.46c-2.02.06-5.56-2.86-5.7-4.85,0-.1,0-.21.01-.31-.05.2-.07.4-.06.59.14,1.98,3.68,4.91,5.7,4.85,1.95-.06,4.58-3.11,4.84-5.31-.43,2.18-2.92,4.98-4.79,5.04Z" style="fill:#042352;"/><path d="M264.57,335.11c-2.32.2-5.53,3.18-5.73,5.18.44-1.99,3.46-4.71,5.68-4.91,1.74-.15,4.8,2.91,4.83,4.65,0,.12,0,.25-.02.38.04-.23.07-.45.07-.65-.02-1.74-3.09-4.8-4.83-4.65Z" style="fill:#fff;"/><path d="M264.62,335.39c-3.13.27-7.39,4.12-8.01,6.92-.02.15-.03.3-.02.44.2,2.8,5.19,6.93,8.04,6.84,2.64-.08,6.15-4.04,6.76-7.11.02-.18.04-.36.03-.54-.03-2.46-4.35-6.77-6.81-6.56Z" style="fill:#fff;"/><path d="M408.48,346.49c-2.59-8.3-9.94-16.44-20.65-17.24-9.67-.73-17.49,5.06-21.54,11.76-6.11,10.14-3.28,19.9-.88,25.48.56,1.29,1.1,2.36,1.48,3.15.49.99.78,1.56.63,1.65l-.1.07c.38.46.77.89,1.18,1.31,4.47,4.72,10.73,7.76,17.76,8.05,6.05.23,11.69-1.64,16.23-4.94-.63-.35-1.26-.72-1.9-1.06.85-.87,1.66-1.75,2.39-2.66.75-.91,1.45-1.85,2.09-2.81,4.51-6.78,5.93-14.41,3.31-22.76ZM371.43,343.69c.17-1.73,3.45-4.54,5.17-4.25,1.1.18,2.37,1.01,3.37,2.07.8.44,1.44.93,1.65,1.42.19.39.23.92.19,1.48.07.27.11.53.09.76,0,.05.02.12,0,.17-.03.14-.07.27-.12.42-.1.28-.27.56-.48.86-.1.14-.21.27-.33.41-.32.64-.73,1.24-1.17,1.74-.26.3-.54.55-.83.75-.13.07-.26.14-.43.2-.47.15-1.05.18-1.67.09-.14-.02-.27-.05-.42-.08-.22.03-.43.04-.63.02-2.05-.21-4.62-3.84-4.41-6.05Z" style="fill:#042352;"/><path d="M413.29,355.8c-.32,8.28-4.48,15.47-10.7,19.98-.64-.36-1.26-.72-1.9-1.06,7.89-8.03,11.13-17.55,7.79-28.23-2.6-8.3-9.94-16.45-20.64-17.25-9.68-.72-17.51,5.06-21.54,11.76-9.24,15.36,1.97,29.83,1.22,30.28l-.1.07c-3.94-4.76-6.23-10.9-5.97-17.56.55-14.32,12.6-25.47,26.92-24.92,14.32.55,25.47,12.6,24.92,26.92Z" style="fill:#042352;"/><path d="M381.81,344.41c.05-.57,0-1.08-.18-1.49-.22-.48-.86-.99-1.65-1.41.88.91,1.58,1.97,1.83,2.9Z" style="fill:#042352;"/><path d="M376.46,349.73c.97.22,1.91.19,2.51-.21.78-.52,1.49-1.45,2.01-2.47-1.13,1.31-3.07,2.5-4.52,2.69Z" style="fill:#042352;"/><path d="M380.99,347.04c.49-.57.83-1.15.91-1.69.04-.29,0-.61-.09-.94-.08.83-.38,1.76-.83,2.63Z" style="fill:#fff;"/><path d="M378.67,337.31c-3.13.27-7.39,4.12-8.01,6.92-.02.15-.03.3-.02.44.2,2.8,5.19,6.93,8.04,6.84,2.64-.08,6.15-4.04,6.76-7.11.02-.18.04-.36.03-.54-.03-2.46-4.35-6.77-6.81-6.56Z" style="fill:#fff;"/><path d="M254.36,266.46c-2.76.38-5.46,1.25-7.93,2.6-1.46.8-2.35,2.71-2.36,3.86.5.81,1.81,2,2.55,2.33,15.35,1.84,26.66,6.37,38.61,15.5.16-4.21-1.83-8.56-6.3-13.97-6.3-7.58-15.71-11.53-24.57-10.32Z" style="fill:#fff;"/><path d="M358.9,294.59c12.96-9.62,25.74-11.54,35.12-12.94,3.48-.52,8.75-1.31,9.68-2.25,0,0,.1-.18.18-.65-.11-1.11-1.51-3.66-2.8-4.42-5.33-3.18-11.39-4.41-17.51-3.58-11.24,1.54-21.3,9.78-25.61,21.02-.4,1.02-.46,2.11-.41,2.96.29-.02.6-.04.91-.08l.43-.06Z" style="fill:#fff;"/></svg>